<svg width="403" height="442" viewBox="0 0 403 442" fill="none" xmlns="http://www.w3.org/2000/svg">
<path opacity="0.18" d="M219.324 442C284.236 442 336.857 432.541 336.857 420.873C336.857 409.205 284.236 399.746 219.324 399.746C154.412 399.746 101.791 409.205 101.791 420.873C101.791 432.541 154.412 442 219.324 442Z" fill="#3B82F6"/>
<path opacity="0.18" d="M365.056 196.277C365.687 172.453 355.267 149.888 344.959 128.39C332.975 103.409 320.204 77.6298 298.486 60.3351C272.189 39.3431 235.955 33.9715 202.682 39.0734C169.408 44.1753 138.351 58.6944 108.441 74.1349C90.7747 83.2599 73.2094 92.8232 57.5233 105.038C47.756 112.646 38.5177 121.614 33.8929 133.133C29.8532 143.123 29.6394 154.181 29.4818 164.947L27.8165 277.784C27.7264 283.92 27.6589 290.235 29.8194 295.978C32.7338 303.698 39.2378 309.407 45.5055 314.778C58.2209 325.679 71.8816 337.029 88.4566 339.501C105.921 342.108 123.272 334.332 140.927 333.882C162.139 333.377 181.954 343.389 202.276 349.503C227.724 357.127 254.598 358.735 280.775 354.2C299.476 350.93 318.291 344.086 331.501 330.5C339.108 322.633 344.509 312.958 348.796 302.923C354.702 289.109 358.645 274.539 360.51 259.635C361.816 249.251 366.992 238.284 367.352 228.091C367.734 217.707 364.764 207.088 365.056 196.277Z" fill="#3B82F6"/>
<path d="M176.148 231.878C172.053 227.66 167.405 224.016 162.33 221.045C160.447 219.817 158.34 218.973 156.13 218.561C154.434 218.339 152.709 218.568 151.13 219.226C149.551 219.883 148.174 220.945 147.139 222.305C146.103 223.664 145.445 225.273 145.232 226.968C145.018 228.662 145.257 230.384 145.924 231.957C147.185 234.445 149.016 236.601 151.269 238.25C158.623 244.363 166.869 249.319 175.72 252.949C177.292 253.697 178.999 254.122 180.739 254.196C183.372 254.196 185.746 252.634 187.783 250.96C193.601 246.15 197.911 239.722 201.781 233.294C204.752 228.417 207.61 223.394 209.174 217.898C210.063 214.774 210.525 211.549 211.099 208.358C211.672 205.166 212.303 202.233 213.068 199.199C213.72 196.626 215.993 192.366 215.78 189.771C215.273 183.848 207.171 190.265 205 191.816C196.444 198.121 189.3 206.139 184.025 215.359C180.918 220.623 178.282 226.151 176.148 231.878Z" fill="#3B82F6"/>
<path d="M176.148 231.878C172.053 227.66 167.405 224.016 162.33 221.045C160.447 219.817 158.34 218.973 156.13 218.561C154.434 218.339 152.709 218.568 151.13 219.226C149.551 219.883 148.174 220.945 147.139 222.305C146.103 223.664 145.445 225.273 145.232 226.968C145.018 228.662 145.257 230.384 145.924 231.957C147.185 234.445 149.016 236.601 151.269 238.25C158.623 244.363 166.869 249.319 175.72 252.949C177.292 253.697 178.999 254.122 180.739 254.196C183.372 254.196 185.746 252.634 187.783 250.96C193.601 246.15 197.911 239.722 201.781 233.294C204.752 228.417 207.61 223.394 209.174 217.898C210.063 214.774 210.525 211.549 211.099 208.358C211.672 205.166 212.303 202.233 213.068 199.199C213.72 196.626 215.993 192.366 215.78 189.771C215.273 183.848 207.171 190.265 205 191.816C196.444 198.121 189.3 206.139 184.025 215.359C180.918 220.623 178.282 226.151 176.148 231.878Z" fill="url(#paint0_linear)"/>
<path d="M149.603 217.674C148.31 215.604 146.881 213.622 145.327 211.74C145.113 211.47 144.821 211.178 144.472 211.246C144.123 211.313 143.943 211.774 143.74 212.111C142.919 213.471 140.781 212.976 139.543 211.976C138.305 210.976 137.18 209.56 135.582 209.47C134.735 209.515 133.932 209.858 133.314 210.438C132.696 211.018 132.304 211.798 132.206 212.639C132.056 214.342 132.404 216.052 133.208 217.561C133.824 219.003 134.526 220.407 135.312 221.764C136.3 223.566 137.603 225.176 139.161 226.518C140.693 227.706 142.45 228.574 144.325 229.069C146.141 229.659 148.075 229.787 149.952 229.439C150.886 229.259 151.764 228.859 152.513 228.272C153.263 227.686 153.862 226.931 154.262 226.068C155.848 222.191 151.28 220.427 149.603 217.674Z" fill="#F3C091"/>
<path d="M193.353 397.757C193.31 398.378 193.395 399.002 193.601 399.589C194.22 401.005 196.144 401.387 197.607 400.904C198.336 400.668 199.007 400.28 199.573 399.764C200.14 399.248 200.59 398.618 200.892 397.915C201.377 396.566 201.539 395.123 201.365 393.7C201.271 392.33 201.087 390.967 200.814 389.621C200.771 389.133 200.627 388.659 200.39 388.229C200.154 387.8 199.831 387.424 199.441 387.126C197.652 386.115 194.298 388.318 193.623 390.048C192.768 392.195 193.376 395.476 193.353 397.757Z" fill="#FFCD90"/>
<path d="M199.621 397.611C199.093 398.117 198.499 398.548 197.854 398.892C196.988 399.211 196.058 399.315 195.142 399.196C194.403 399.014 193.631 399.014 192.892 399.196C192.472 399.426 192.093 399.722 191.767 400.072C190.981 400.717 190.133 401.282 189.235 401.758L185.499 403.814C184.382 404.392 183.336 405.098 182.382 405.916C181.808 406.455 181.313 407.04 180.739 407.635C180.46 407.862 180.227 408.141 180.053 408.456C179.949 408.755 179.936 409.079 180.014 409.386C180.092 409.694 180.258 409.972 180.491 410.186C180.975 410.598 181.563 410.87 182.191 410.973C182.928 411.145 183.685 411.217 184.441 411.186C185.522 411.111 186.597 410.968 187.659 410.759C190.053 410.472 192.425 410.025 194.76 409.422C197.1 408.714 199.385 407.849 201.669 406.983C202.494 406.742 203.244 406.298 203.852 405.691C204.225 405.1 204.458 404.43 204.532 403.735C204.607 403.039 204.52 402.336 204.279 401.679C204.056 400.733 203.77 399.801 203.424 398.892C203.087 398.005 202.546 397.027 201.613 396.858C201.291 396.829 200.967 396.865 200.66 396.963C200.352 397.062 200.068 397.221 199.823 397.431L199.621 397.611Z" fill="#2E2E3F"/>
<path d="M178.41 327.792C180.158 345.84 183.223 363.736 187.581 381.339C188.256 384.059 189.01 386.868 190.765 389.059C192.52 391.251 195.592 392.633 198.214 391.622C199.28 391.118 200.199 390.351 200.884 389.393C201.569 388.435 201.998 387.319 202.13 386.149C202.381 383.811 202.259 381.448 201.77 379.148C199.013 360.212 200.566 340.94 203.154 321.959C203.845 315.809 205.08 309.732 206.845 303.799C208.094 299.877 209.782 296.023 210.052 291.91C210.828 279.84 198.878 270.974 187.446 273.559C176.857 275.952 177.69 293.55 177.386 301.855C177.152 310.514 177.494 319.178 178.41 327.792Z" fill="#2E2E3F"/>
<path d="M178.41 327.792C180.158 345.84 183.223 363.736 187.581 381.339C188.256 384.059 189.01 386.868 190.765 389.059C192.52 391.251 195.592 392.633 198.214 391.622C199.28 391.118 200.199 390.351 200.884 389.393C201.569 388.435 201.998 387.319 202.13 386.149C202.381 383.811 202.259 381.448 201.77 379.148C199.013 360.212 200.566 340.94 203.154 321.959C203.845 315.809 205.08 309.732 206.845 303.799C208.094 299.877 209.782 296.023 210.052 291.91C210.828 279.84 198.878 270.974 187.446 273.559C176.857 275.952 177.69 293.55 177.386 301.855C177.152 310.514 177.494 319.178 178.41 327.792Z" fill="url(#paint1_linear)"/>
<path d="M244.125 407.343C244.352 407.921 244.692 408.449 245.126 408.894C246.252 409.905 248.187 409.433 249.324 408.388C249.878 407.859 250.316 407.219 250.609 406.511C250.901 405.803 251.042 405.041 251.023 404.275C250.884 402.841 250.41 401.459 249.639 400.241C248.968 399.037 248.216 397.881 247.388 396.78C247.149 396.361 246.826 395.995 246.438 395.707C246.051 395.419 245.608 395.214 245.138 395.105C243.078 394.948 240.974 398.364 241.109 400.218C241.199 402.556 243.146 405.264 244.125 407.343Z" fill="#FFCD90"/>
<path d="M251.45 405.107C250.944 404.826 250.325 404.871 249.515 405.567C248.969 406.158 248.382 406.71 247.759 407.219C246.69 407.905 245.295 407.86 244.125 408.343C243.427 408.701 242.783 409.155 242.212 409.692C240.02 411.412 238.054 413.402 236.361 415.614C235.235 417.198 232.613 419.817 234.493 421.795C235.404 422.75 236.957 422.682 238.24 422.345C239.56 421.965 240.85 421.488 242.099 420.918C245.025 419.682 247.94 418.446 250.775 417.03C251.874 416.563 252.868 415.883 253.701 415.03C254.338 414.247 254.764 413.315 254.939 412.322C255.115 411.329 255.033 410.307 254.702 409.355C254.368 408.785 253.968 408.257 253.51 407.781C252.823 406.938 252.283 405.579 251.45 405.107Z" fill="#2E2E3F"/>
<path d="M199.34 282.212C197.708 287.83 199.114 293.809 200.352 299.518C203.619 314.564 205.751 329.834 206.732 345.199C206.793 347.604 207.11 349.996 207.678 352.335C208.385 354.526 209.34 356.63 210.525 358.605C217.726 371.738 225.393 384.602 233.525 397.195C235.438 400.162 237.936 403.444 241.469 403.511C245.97 403.612 248.761 398.151 248.018 393.734C247.276 389.318 244.305 385.654 242.088 381.755C238.712 375.855 236.991 369.18 235.337 362.595C233.682 356.009 231.961 349.267 231.488 342.434C230.475 326.701 236.158 311.508 239.511 296.158C240.268 293.336 240.538 290.406 240.31 287.493C239.568 281.571 234.931 276.604 229.395 274.356C220.337 270.704 202.648 270.861 199.34 282.212Z" fill="#2E2E3F"/>
<path d="M199.34 282.212C197.708 287.83 199.114 293.809 200.352 299.518C203.619 314.564 205.751 329.834 206.732 345.199C206.793 347.604 207.11 349.996 207.678 352.335C208.385 354.526 209.34 356.63 210.525 358.605C217.726 371.738 225.393 384.602 233.525 397.195C235.438 400.162 237.936 403.444 241.469 403.511C245.97 403.612 248.761 398.151 248.018 393.734C247.276 389.318 244.305 385.654 242.088 381.755C238.712 375.855 236.991 369.18 235.337 362.595C233.682 356.009 231.961 349.267 231.488 342.434C230.475 326.701 236.158 311.508 239.511 296.158C240.268 293.336 240.538 290.406 240.31 287.493C239.568 281.571 234.931 276.604 229.395 274.356C220.337 270.704 202.648 270.861 199.34 282.212Z" fill="url(#paint2_linear)"/>
<path d="M203.886 196.682C200.454 202.244 198.406 208.526 196.391 214.729C194.839 219.505 193.286 224.293 192.149 229.192C190.079 238.104 189.392 247.319 186.86 256.106C184.542 264.175 180.66 272.525 183.023 280.582C184 283.632 185.615 286.44 187.761 288.819C192.378 294.058 198.399 297.869 205.114 299.803C211.829 301.736 218.958 301.711 225.659 299.731C228.256 298.959 230.716 297.788 232.951 296.259C238.87 292.089 242.167 285.021 243.664 277.964C245.16 270.906 245.115 263.58 245.779 256.376C246.904 244.105 250.1 232.035 250.28 219.719C250.46 207.402 246.904 194.164 237.306 186.478C225.063 176.746 210.885 185.354 203.886 196.682Z" fill="#3B82F6"/>
<path d="M203.886 196.682C200.454 202.244 198.406 208.526 196.391 214.729C194.839 219.505 193.286 224.293 192.149 229.192C190.079 238.104 189.392 247.319 186.86 256.106C184.542 264.175 180.66 272.525 183.023 280.582C184 283.632 185.615 286.44 187.761 288.819C192.378 294.058 198.399 297.869 205.114 299.803C211.829 301.736 218.958 301.711 225.659 299.731C228.256 298.959 230.716 297.788 232.951 296.259C238.87 292.089 242.167 285.021 243.664 277.964C245.16 270.906 245.115 263.58 245.779 256.376C246.904 244.105 250.1 232.035 250.28 219.719C250.46 207.402 246.904 194.164 237.306 186.478C225.063 176.746 210.885 185.354 203.886 196.682Z" fill="url(#paint3_linear)"/>
<path d="M207.43 155.282C206.361 159.002 205.54 162.912 206.147 166.745C206.755 170.577 209.017 174.33 212.618 175.735C214.103 176.33 215.836 176.577 216.882 177.78C217.745 179.063 218.084 180.627 217.828 182.151C217.745 183.687 217.583 185.217 217.344 186.736C217.149 187.58 217.111 188.452 217.231 189.31C217.422 190.047 217.815 190.718 218.366 191.245C218.916 191.773 219.602 192.138 220.348 192.299C221.847 192.609 223.407 192.411 224.782 191.737C228.923 189.905 231.533 185.624 232.658 181.241C233.784 176.858 233.705 172.251 234.065 167.756C234.376 165.225 234.496 162.674 234.425 160.126C234.215 157.353 233.401 154.659 232.041 152.233C230.68 149.807 228.806 147.706 226.548 146.078C223.308 143.752 216.32 140.797 212.449 143.258C211.087 144.123 210.592 145.719 210.086 147.157C209.129 149.843 208.207 152.563 207.43 155.282Z" fill="#F3C091"/>
<path d="M214.666 128.986C213.77 129.234 212.95 129.699 212.278 130.34C211.607 130.981 211.105 131.778 210.817 132.661C210.261 134.438 210.191 136.331 210.615 138.145C211.38 142.143 213.374 145.804 216.32 148.618C218.154 150.36 220.348 151.787 221.631 153.945C222.391 155.336 222.865 156.864 223.026 158.44C223.094 158.923 223.195 159.485 223.634 159.71C224.073 159.935 224.759 159.53 225.232 159.114C226.109 158.271 227.223 157.384 228.405 157.687C229.586 157.99 230.228 159.62 230.228 160.968C230.295 161.759 230.158 162.555 229.831 163.278C229.504 164.002 228.998 164.63 228.36 165.104C227.955 165.351 227.426 165.553 227.302 166.003C227.111 166.666 227.854 167.127 228.247 167.733C228.644 168.518 228.819 169.396 228.754 170.273C228.724 170.706 228.813 171.139 229.011 171.525C229.209 171.912 229.509 172.236 229.879 172.465C230.213 172.551 230.562 172.559 230.9 172.489C231.237 172.418 231.554 172.272 231.826 172.06C234.076 170.678 235.269 168.16 237.171 166.362C238.397 165.239 239.905 164.34 241.188 163.227C242.563 162.06 243.654 160.595 244.378 158.944C245.101 157.293 245.438 155.498 245.363 153.698C245.253 151.897 244.661 150.159 243.647 148.666C242.633 147.173 241.236 145.981 239.601 145.213C237.801 144.427 235.764 144.224 234.087 143.224C231.769 141.842 230.554 139.246 229.17 136.942C228.517 135.692 227.607 134.593 226.5 133.718C225.393 132.843 224.113 132.21 222.745 131.863C219.887 131.121 217.827 128.312 214.666 128.986Z" fill="#452D21"/>
<path d="M242.493 192.097C242.493 192.097 257.977 212.19 262.995 253.904C268.014 295.618 262.061 309.227 262.061 309.227C262.061 309.227 251.371 314.745 248.873 308.721C246.375 302.698 245.801 247.903 236.495 236.058C227.19 224.214 233.997 194.648 242.493 192.097Z" fill="#3B82F6"/>
<path d="M242.493 192.097C242.493 192.097 257.977 212.19 262.995 253.904C268.014 295.618 262.061 309.227 262.061 309.227C262.061 309.227 251.371 314.745 248.873 308.721C246.375 302.698 245.801 247.903 236.495 236.058C227.19 224.214 233.997 194.648 242.493 192.097Z" fill="url(#paint4_linear)"/>
<path d="M247.647 320.038C247.354 320.88 247.287 322.139 248.165 322.285C249.042 322.431 249.785 321.633 250.269 322.184C250.406 322.377 250.473 322.611 250.46 322.847C250.599 325.255 250.139 327.661 249.121 329.848C248.76 330.399 248.608 331.061 248.693 331.714C249.02 332.837 250.64 332.961 251.777 332.601C255.884 331.331 258.854 327.567 260.126 323.465C261.398 319.363 261.251 314.969 260.711 310.71C260.687 309.351 260.203 308.04 259.338 306.991C257.313 305.024 253.633 306.047 252.362 308.227C250.291 311.789 248.997 316.161 247.647 320.038Z" fill="#F3C091"/>
<path d="M54.125 129.728C78.9586 129.728 99.0903 109.623 99.0903 84.8219C99.0903 60.0212 78.9586 39.9162 54.125 39.9162C29.2913 39.9162 9.15967 60.0212 9.15967 84.8219C9.15967 109.623 29.2913 129.728 54.125 129.728Z" fill="#3B82F6"/>
<path d="M200.667 89.8114C225.501 89.8114 245.633 69.7065 245.633 44.9057C245.633 20.105 225.501 0 200.667 0C175.834 0 155.702 20.105 155.702 44.9057C155.702 69.7065 175.834 89.8114 200.667 89.8114Z" fill="#3B82F6"/>
<path d="M358.035 180.443C382.868 180.443 403 160.338 403 135.538C403 110.737 382.868 90.6318 358.035 90.6318C333.201 90.6318 313.069 110.737 313.069 135.538C313.069 160.338 333.201 180.443 358.035 180.443Z" fill="#3B82F6"/>
<path d="M44.9653 320.97C69.799 320.97 89.9306 300.865 89.9306 276.065C89.9306 251.264 69.799 231.159 44.9653 231.159C20.1317 231.159 0 251.264 0 276.065C0 300.865 20.1317 320.97 44.9653 320.97Z" fill="#3B82F6"/>
<path d="M353.309 340.434C378.142 340.434 398.274 320.329 398.274 295.528C398.274 270.727 378.142 250.622 353.309 250.622C328.475 250.622 308.343 270.727 308.343 295.528C308.343 320.329 328.475 340.434 353.309 340.434Z" fill="#3B82F6"/>
<path d="M343.204 117.512C343.204 116.591 343.148 115.557 343.204 114.534C343.406 111.759 344.835 110.039 347.604 109.938C352.937 109.77 358.294 109.758 363.627 109.938C366.485 110.017 367.948 111.781 368.128 114.658C368.185 115.624 368.128 116.591 368.128 117.872H376.714C377.547 117.872 378.379 117.872 379.212 117.872C381.361 117.973 382.307 118.827 382.318 120.917C382.318 127.233 382.318 133.537 382.318 139.853C382.318 140.448 382.239 141.302 381.856 141.583C380.27 142.707 380.596 144.359 380.596 145.91C380.596 148.753 380.596 151.596 380.596 154.439C380.596 156.788 379.628 157.811 377.299 157.811C362.918 157.856 348.545 157.856 334.179 157.811C331.726 157.811 330.803 156.81 330.803 154.338C330.803 150.967 330.803 147.685 330.803 144.359C330.644 143.605 330.375 142.878 330.005 142.201C329.57 141.371 329.274 140.475 329.127 139.549C329.048 133.447 329.127 127.345 329.127 121.243C329.127 118.76 330.016 117.872 332.57 117.872C335.946 117.872 339.322 117.872 342.776 117.804C342.765 117.804 342.889 117.681 343.204 117.512ZM359.43 143.752C359.667 143.8 359.908 143.826 360.15 143.831L379.156 141.269C380.439 141.1 380.641 140.291 380.641 139.201C380.641 133.369 380.641 127.548 380.641 121.726C380.641 120.254 380.214 119.614 378.616 119.614C363.342 119.659 348.065 119.659 332.784 119.614C331.209 119.614 330.736 120.232 330.747 121.704C330.803 127.536 330.747 133.357 330.747 139.179C330.699 139.45 330.714 139.728 330.788 139.993C330.863 140.258 330.997 140.503 331.18 140.709C331.363 140.916 331.59 141.078 331.844 141.185C332.098 141.291 332.373 141.339 332.649 141.325C336.497 141.797 340.346 142.449 344.194 142.909C346.771 143.258 349.348 143.572 351.902 143.898C352.633 140.527 353.162 140.033 355.795 140.055C358.237 140.078 358.755 140.594 359.43 143.752ZM378.773 143.089C372.956 143.898 367.521 144.741 361.973 145.337C360.161 145.55 359.036 145.831 359.126 148.045C359.205 149.798 357.9 150.585 356.234 150.641C354.569 150.697 352.42 150.697 352.431 148.731C352.431 145.303 350.237 145.359 348.009 145.146C347.041 145.033 346.084 144.887 345.117 144.752L332.57 143.1C332.57 146.685 332.683 150 332.57 153.304C332.48 155.383 333.121 156.035 335.259 156.024C347.345 155.923 359.43 155.968 371.515 155.968C373.394 155.968 375.262 155.968 377.142 155.968C378.267 155.968 378.83 155.586 378.818 154.417C378.762 150.787 378.773 147.124 378.773 143.1V143.089ZM355.672 111.624C353.241 111.624 350.811 111.624 348.38 111.624C347.733 111.674 347.109 111.881 346.56 112.226C346.01 112.572 345.554 113.045 345.228 113.605C344.903 114.166 344.719 114.797 344.691 115.444C344.664 116.091 344.795 116.735 345.072 117.321C345.172 117.451 345.299 117.558 345.445 117.634C345.591 117.71 345.751 117.752 345.916 117.76C346.077 117.749 346.233 117.701 346.372 117.619C346.511 117.537 346.628 117.423 346.715 117.288C346.814 116.887 346.844 116.473 346.805 116.063C346.883 113.377 346.883 113.377 349.629 113.377C353.174 113.377 356.718 113.377 360.251 113.377C361.557 113.377 363.042 113.208 364.066 113.781C364.629 114.096 364.37 115.804 364.572 116.872C364.64 117.198 364.955 117.658 365.225 117.715C365.417 117.744 365.613 117.723 365.795 117.654C365.976 117.585 366.136 117.47 366.26 117.321C367.566 115.074 365.72 111.702 363.177 111.624C360.634 111.545 358.181 111.635 355.672 111.635V111.624ZM362.671 115.242H348.673V117.715H362.671V115.242ZM353.939 145.247C353.939 145.719 353.939 146.202 353.939 146.685C353.86 148 354.029 148.933 355.773 148.933C357.517 148.933 357.483 147.978 357.45 146.786C357.416 145.595 357.45 144.449 357.45 143.28C357.45 142.112 356.741 141.583 355.75 141.842C355.023 142.083 354.41 142.583 354.029 143.247C353.702 143.775 353.939 144.584 353.939 145.281V145.247Z" fill="white"/>
<path d="M208.038 48.6366L190.664 63.9086C191.362 67.2125 192.059 70.3478 192.633 73.5056C192.834 74.3945 192.759 75.3233 192.419 76.1689C191.956 77.0746 191.226 77.8161 190.326 78.2928C190.022 78.4389 188.92 77.4388 188.492 76.7533C186.894 74.1911 185.431 71.5502 183.991 68.9656C177.532 70.0107 175.867 68.3812 177.645 62.6051C175.079 61.1104 172.446 59.6495 169.903 58.11C169.199 57.5278 168.572 56.8595 168.035 56.1209C169.003 55.3792 170.027 53.9408 170.927 54.0195C174.303 54.3117 177.566 55.1432 180.885 55.7051C181.347 55.8345 181.796 56.0076 182.224 56.2221C187.378 50.3897 192.521 44.5686 197.865 38.5003L187.862 32.6791C185.24 31.1621 182.63 29.6225 179.985 28.1841C178.747 27.4986 178.455 26.4647 179.513 25.6893C180.788 24.5783 182.345 23.8396 184.014 23.5542C191.495 23.2149 198.898 25.2016 205.202 29.2404C207.036 27.5098 208.758 25.8691 210.536 24.2172C212.047 22.8309 213.839 21.7854 215.79 21.1513C217.741 20.5173 219.806 20.3097 221.845 20.5425C225.007 20.8009 225.884 21.7224 226.098 24.9476C226.272 27.2928 225.894 29.6459 224.995 31.8195C224.097 33.993 222.702 35.9267 220.922 37.4664C219.718 38.5902 218.458 39.7139 217.726 40.3432C219.459 45.771 221.271 50.783 222.61 55.9186C223.064 58.3751 223.173 60.8826 222.936 63.3692C222.828 64.4164 222.4 65.405 221.71 66.2011C220.157 68.0778 219.212 67.943 217.985 65.8303C214.722 60.2227 211.492 54.5814 208.038 48.6366ZM224.129 26.4535C223.971 24.3296 224.354 22.4753 221.462 22.3742C219.344 22.2274 217.222 22.5814 215.267 23.4073C213.312 24.2332 211.579 25.5078 210.21 27.1277C201.984 36.5112 193.691 45.8497 185.578 55.3343C183.289 58.1414 181.209 61.1124 179.355 64.2233C179.144 64.6581 179.045 65.1385 179.067 65.6211C179.088 66.1038 179.23 66.5734 179.479 66.9877C179.905 67.2237 180.383 67.3539 180.87 67.3676C181.358 67.3813 181.841 67.278 182.281 67.0664C184.373 66.0386 186.343 64.7796 188.155 63.313C198.792 54.2105 209.369 45.0443 219.887 35.8145C221.24 34.662 222.322 33.2254 223.055 31.6073C223.789 29.9892 224.155 28.2294 224.129 26.4535ZM219.898 65.2684C222.734 61.3914 219.898 47.8275 215.397 42.3997L209.579 47.3218L219.898 65.2684ZM204.201 30.9598C198.165 27.1039 191.109 25.1464 183.946 25.3409C182.867 25.5495 181.817 25.8852 180.818 26.3411L199.115 36.927L204.201 30.9598ZM180.987 57.7953C177.64 56.0768 173.84 55.4443 170.117 55.9861L178.725 60.9644L180.987 57.7953ZM190.169 75.7756C190.93 72.2855 190.343 68.6371 188.526 65.5606L185.488 67.8081L190.169 75.7756Z" fill="white"/>
<path d="M221.17 30.2968C221.203 30.6794 221.145 31.0644 221.001 31.4205C220.589 31.9826 220.121 32.5021 219.605 32.9713C219.344 32.3776 219.192 31.742 219.155 31.0946C219.56 28.4088 218.109 27.0154 215.341 27.4424C214.731 27.423 214.129 27.2975 213.563 27.0716C214.013 26.5659 214.362 25.8354 214.913 25.6219C215.642 25.3749 216.419 25.3087 217.179 25.4293C217.939 25.5498 218.658 25.8533 219.274 26.3136C219.89 26.774 220.385 27.3772 220.715 28.0712C221.045 28.7652 221.201 29.5291 221.17 30.2968Z" fill="white"/>
<path d="M75.4935 88.3281C83.4716 89.4519 83.9555 89.9688 83.9555 97.8689C83.9555 99.1949 83.9555 100.521 83.9555 101.836C83.7529 105.466 81.7725 107.387 78.1379 107.533C77.3952 107.533 76.6638 107.533 75.7411 107.533C75.6286 108.061 75.5386 108.522 75.4373 108.972C74.6384 112.467 72.9842 113.894 69.3834 113.905C58.6484 113.905 47.9097 113.905 37.1673 113.905C33.2289 113.905 31.8448 112.489 30.7983 107.769C30.5947 107.663 30.3736 107.595 30.1456 107.567C24.9132 108.039 22.1338 105.713 22.5051 99.7006C22.5952 98.3071 22.5051 96.9024 22.5051 95.4977C22.5051 90.6093 24.3281 88.7551 29.1667 88.6315C29.6505 88.6315 30.1344 88.6315 30.9446 88.5416C30.9446 83.125 30.9446 77.7984 30.9446 72.4717C30.9446 72.011 30.3257 71.348 29.8193 71.1345C28.8922 70.6659 28.1194 69.9413 27.5928 69.0468C27.0661 68.1523 26.8078 67.1256 26.8486 66.0887C26.8486 64.3581 26.8486 62.6275 26.8486 60.8857C26.9387 56.7952 28.8066 54.9073 32.97 54.8061C36.267 54.7275 39.5753 54.8061 42.8836 54.8061C44.1439 54.8061 45.1341 54.7162 45.5504 53.2553C45.7102 52.8744 45.9614 52.5387 46.2818 52.2776C49.2975 49.0524 58.7835 50.0301 61.2253 53.6149C61.4814 53.9377 61.8015 54.2041 62.1655 54.3974C62.5295 54.5908 62.9296 54.707 63.3408 54.7387C66.7165 54.8623 70.0923 54.7387 73.4681 54.8174C77.7441 54.9073 79.5782 56.8064 79.6458 61.0992C79.8106 62.972 79.7577 64.8575 79.4882 66.718C79.1419 68.2823 78.2825 69.6863 77.0464 70.7074C76.5337 70.9925 76.1131 71.4179 75.834 71.9334C75.555 72.449 75.429 73.0334 75.471 73.618C75.5273 78.4727 75.4935 83.3386 75.4935 88.3281ZM33.2626 71.7638C33.1951 72.6403 33.1163 73.2808 33.1163 73.9326C33.1163 84.9905 33.1163 96.0484 33.1163 107.106C33.1163 110.905 34.1065 111.837 38.0562 111.837H68.2919C72.4553 111.837 73.3443 110.938 73.3443 106.713C73.3443 95.9173 73.3443 85.1104 73.3443 74.2922V71.7862H69.1021C68.9669 73.3546 68.9971 74.9328 69.1921 76.4948C69.3946 77.45 70.9363 78.2479 70.925 79.102C70.9137 79.956 69.7097 80.7876 69.0346 81.6642C68.7983 81.99 68.7645 82.4508 68.5507 82.7879C68.2768 83.226 67.8974 83.5885 67.447 83.8423C66.9967 84.0962 66.4899 84.2333 65.9728 84.2411C65.4558 84.2489 64.945 84.1272 64.4872 83.8871C64.0293 83.647 63.6391 83.2961 63.352 82.8666C62.5081 81.5405 61.7541 80.1583 60.8764 78.6637C64.2522 77.2477 62.193 74.3035 62.7331 71.8312H43.8288C44.1664 74.4383 42.4222 77.3601 45.708 78.8098C45.0752 79.8778 44.3565 80.8925 43.5587 81.844C42.6698 82.7542 41.522 84.0915 40.5093 84.0915C39.4965 84.0915 38.4388 82.6755 37.5273 81.7653C37.1785 81.4282 37.3023 80.4055 36.9985 80.2932C33.2739 78.9334 36.177 78.394 37.2123 77.686V71.7638H33.2626ZM62.5193 57.0424H43.8288V69.4039H62.5643L62.5193 57.0424ZM37.1898 56.8514C34.4441 57.3795 30.7308 55.3343 29.5493 58.5707C28.5099 61.658 28.5735 65.0096 29.7293 68.0553C30.9221 70.876 34.5341 69.1791 37.1898 69.4488V56.8514ZM69.2146 69.7297C72.0165 68.8644 75.7524 71.0108 76.8551 67.8306C77.8761 64.7374 77.8166 61.3898 76.6863 58.3347C75.5611 55.4804 71.8702 57.2896 69.2146 56.8851V69.7297ZM30.832 90.8116C25.5433 90.3509 24.6319 91.1937 24.6206 96.2844V99.9928C24.6206 104.949 25.8134 105.971 30.832 105.207V90.8116ZM75.4935 90.8116V105.421C81.0186 105.758 81.8288 104.994 81.8288 99.8017V96.3293C81.8288 91.1937 80.9623 90.4183 75.4935 90.7779V90.8116ZM41.5783 57.166L40.9144 56.694C40.4193 57.1997 39.519 57.6942 39.4965 58.2111C39.3615 61.5038 39.384 64.7964 39.4965 68.089C39.4965 68.5498 40.1042 68.9993 40.4418 69.4488C40.8243 68.9656 41.567 68.4936 41.567 67.9991C41.6345 64.4368 41.5783 60.7733 41.5783 57.166ZM66.9978 57.0986L66.3339 56.6716C65.8613 57.211 65.0061 57.7392 64.9836 58.2898C64.8599 61.5824 64.8824 64.8751 64.9836 68.1677C64.9836 68.606 65.6588 69.033 66.0076 69.46C66.3677 69.033 67.0204 68.606 67.0316 68.1677C67.0429 64.4368 67.0091 60.7846 67.0091 57.0986H66.9978ZM47.2046 54.4915H59.2111C56.8818 51.8394 49.6914 51.8169 47.2046 54.4915ZM39.429 74.7193C39.3382 75.2813 39.3382 75.8542 39.429 76.4162C39.7018 76.9613 40.0462 77.4677 40.453 77.922C40.9212 77.4836 41.3029 76.9614 41.5783 76.3824C41.7581 75.5871 41.7581 74.7617 41.5783 73.9664C41.3146 73.1805 40.9636 72.4266 40.5318 71.7188C40.1717 72.4605 39.7891 73.2022 39.4065 73.9664C39.374 74.2024 39.3854 74.4424 39.4403 74.6743L39.429 74.7193ZM67.0091 74.989C67.0939 74.4265 67.0939 73.8545 67.0091 73.2921C66.741 72.7339 66.3964 72.2157 65.9851 71.7525C65.625 72.247 65.0512 72.6965 64.9274 73.2471C64.7485 74.1297 64.7485 75.0391 64.9274 75.9217C65.1692 76.6306 65.5061 77.3035 65.9289 77.922C66.2889 77.259 66.694 76.6072 67.0541 75.9217C67.1056 75.5967 67.0941 75.2648 67.0204 74.944L67.0091 74.989Z" fill="white"/>
<path d="M53.2247 109.68C48.8474 109.68 44.4702 109.59 40.1042 109.68C37.8537 109.747 37.246 108.938 37.3135 106.803C37.4486 102.195 37.3923 97.5767 37.3135 92.958C37.3135 91.2836 37.8537 90.5869 39.5641 90.5869C48.6411 90.6468 57.722 90.6468 66.8066 90.5869C68.5507 90.5869 69.0571 91.2948 69.0571 92.958C68.9896 97.7452 68.9671 102.521 69.0571 107.297C69.0571 109.253 68.2131 109.68 66.514 109.668C62.1367 109.646 57.6807 109.68 53.2247 109.68ZM66.514 92.8906H39.9354C39.9996 94.8913 40.7757 96.8037 42.1245 98.2845C43.4732 99.7653 45.3062 100.718 47.2946 100.97C49.1288 101.173 51.5706 102.431 52.7071 99.4871C53.041 99.3631 53.4084 99.3631 53.7423 99.4871C54.8676 102.443 57.3206 101.173 59.1548 100.97C61.1432 100.718 62.9762 99.7653 64.3249 98.2845C65.6736 96.8037 66.4498 94.8913 66.514 92.8906ZM66.9303 98.5094C63.7009 102.297 59.8862 103.42 55.5877 103.398C55.1039 103.398 54.6875 104.308 54.1249 104.522C53.5418 104.724 52.9076 104.724 52.3245 104.522C51.5593 104.252 50.8842 103.398 50.1415 103.398C47.0245 103.207 44.0763 102.645 41.6008 100.588C40.9594 100.06 40.3517 99.4646 39.5866 98.8241V107.286H66.9303V98.5094Z" fill="white"/>
<path d="M46.6645 307.418C41.6118 307.388 36.6459 306.103 32.2145 303.678C27.783 301.254 24.0254 297.766 21.2803 293.53C18.5352 289.293 16.889 284.441 16.4899 279.411C16.0908 274.38 16.9515 269.33 18.9944 264.715C19.1595 264.272 19.3668 263.847 19.6133 263.445C21.1818 261.339 21.8825 258.713 21.5713 256.106C20.8849 249.364 28.3791 244.869 34.5567 247.858C35.5761 248.333 36.7267 248.448 37.82 248.184C42.097 246.879 46.6104 246.537 51.0357 247.182C55.4609 247.827 59.688 249.444 63.413 251.915C67.138 254.387 70.2684 257.652 72.579 261.476C74.8896 265.3 76.3231 269.587 76.7764 274.031C77.6141 281.645 75.493 289.289 70.8509 295.387C66.2088 301.484 59.3999 305.57 51.8295 306.8C50.1191 307.17 48.3862 307.227 46.6645 307.418ZM48.915 292.292C48.5662 295.764 47.7898 298.866 44.0539 300.495C43.3788 300.787 43.1537 302.889 43.345 304.058C43.435 304.619 44.9654 305.294 45.8543 305.327C47.8137 305.405 49.7757 305.27 51.7057 304.923C55.7399 304.22 59.5691 302.637 62.9204 300.287C66.2717 297.936 69.0625 294.876 71.0939 291.325L67.7181 289.819C65.8277 292.685 64.0272 295.348 62.2718 298.057C61.2254 299.664 60.3026 299.596 59.2674 298.057C58.2322 296.517 57.0169 294.685 55.7003 292.865C54.9577 293.753 54.395 294.494 53.7874 295.18C52.3133 296.832 50.7042 296.708 49.6352 294.775C49.3026 293.992 49.0427 293.179 48.8588 292.348C48.539 290.525 48.3136 288.687 48.1836 286.841C48.1836 285.032 47.3959 283.897 45.663 283.717C43.4237 283.441 41.1638 283.369 38.9115 283.504C35.6595 283.785 33.454 282.684 32.6325 279.885C31.8111 277.087 32.8351 275.694 36.1884 274.042C39.2388 272.65 42.1008 270.88 44.7066 268.771C47.3847 266.468 47.3172 264.512 45.1229 261.759C42.2197 258.118 41.6459 254.308 43.6376 250.106C43.7384 249.738 43.8025 249.362 43.8289 248.982L37.5949 250.353C38.7551 251.792 39.4336 253.559 39.5345 255.404C39.6355 257.248 39.1538 259.078 38.1576 260.635C36.2896 264.007 34.2417 267.277 32.1487 270.513C30.7871 272.603 30.1795 272.57 28.7729 270.513C26.8487 267.704 25.0146 264.827 22.9778 261.714C22.3139 263.006 21.4362 263.962 21.3125 265.085C20.6148 271.255 20.6598 277.548 23.6305 283.066C27.3551 289.999 30.7646 290.561 36.5147 288.044C37.0886 287.797 37.6962 287.617 38.2701 287.358C42.5011 285.549 45.528 286.628 47.6772 290.674C48.0372 291.237 48.4318 291.777 48.8588 292.292H48.915ZM71.9603 289.392C73.9849 285.587 75.0327 281.34 75.0098 277.031C74.9422 273.109 73.3219 270.581 69.5298 269.434C67.7969 268.906 65.8052 269.299 63.9035 269.041C61.2881 268.805 58.7069 268.281 56.2067 267.479C53.4948 266.355 52.3246 263.096 52.966 260.051C53.6524 256.781 55.0927 255.679 58.716 255.252C60.0355 254.926 61.3148 254.455 62.5307 253.848C58.0921 250.748 52.8229 249.053 47.4072 248.982C46.9008 248.982 46.1919 249.611 45.8993 250.106C44.8882 251.672 44.4168 253.524 44.5569 255.383C44.6971 257.241 45.4411 259.002 46.6758 260.399C49.5902 264.119 49.4889 267.288 45.8993 270.356C43.2212 272.603 39.8792 274.222 36.7172 275.918C35.3894 276.638 33.9941 277.042 34.4667 278.919C34.5257 279.33 34.6684 279.725 34.886 280.08C35.1036 280.434 35.3915 280.74 35.732 280.979C36.0725 281.218 36.4583 281.385 36.8658 281.469C37.2733 281.554 37.6937 281.554 38.1013 281.47C40.366 281.195 42.6557 281.195 44.9204 281.47C49.1738 282.099 50.0741 283.526 50.1866 287.842C50.3923 290.068 50.7419 292.279 51.2331 294.461C54.7664 291.314 54.7551 291.314 53.1235 287.965C52.8197 287.325 52.5271 286.673 52.2908 286.01C51.5116 283.879 51.5869 281.529 52.5011 279.452C53.4153 277.374 55.0977 275.73 57.1969 274.862C59.3288 273.972 61.7197 273.923 63.8861 274.726C66.0524 275.53 67.8323 277.125 68.8659 279.189C70.3399 282.122 69.8336 284.954 68.5958 287.853L71.9603 289.392ZM41.0157 304.631C40.7682 301.765 41.1845 299.428 43.8514 298.012C46.5182 296.596 47.1259 294.247 45.7868 291.46C44.4478 288.673 42.0847 287.785 39.3728 288.932C38.2476 289.426 37.0661 289.932 35.8845 290.359C30.7309 292.236 26.7925 291.247 23.6305 286.785C22.1782 284.571 21.042 282.166 20.2547 279.638C19.656 277.448 19.2197 275.217 18.9494 272.963C16.08 285.729 25.3971 301.866 41.0157 304.631ZM64.3648 255.185C62.4069 255.96 60.7415 257.062 58.9973 257.197C56.4993 257.399 55.2165 258.421 54.8451 260.781C54.6207 261.911 54.8154 263.084 55.3931 264.08C55.9708 265.077 56.892 265.83 57.9846 266.198C59.5209 266.792 61.1532 267.101 62.8007 267.108C66.5253 266.793 70.1374 266.602 73.4119 269.041C72.0113 263.545 68.8306 258.666 64.3648 255.162V255.185ZM60.3139 296.371L61.2704 296.528C63.3408 292.674 65.4676 288.853 67.4255 284.942C67.7952 283.99 67.8735 282.95 67.6506 281.953C67.4441 280.621 66.8378 279.382 65.9116 278.401C64.9854 277.42 63.783 276.742 62.4631 276.458C61.2478 276.081 59.948 276.07 58.7268 276.428C57.5056 276.786 56.4175 277.496 55.5991 278.469C54.6205 279.412 53.9801 280.651 53.7767 281.993C53.5733 283.336 53.8183 284.708 54.4738 285.898C56.2067 289.437 58.3334 292.865 60.3139 296.349V296.371ZM30.0332 269.131H30.9334C32.9139 265.569 35.0406 262.085 36.8073 258.433C37.489 257.034 37.6425 255.436 37.2394 253.933C36.8363 252.43 35.9037 251.123 34.613 250.252C33.3611 249.34 31.8443 248.864 30.2954 248.897C28.7465 248.929 27.2511 249.468 26.0385 250.431C24.7744 251.345 23.8835 252.684 23.5299 254.202C23.1763 255.72 23.3838 257.314 24.1143 258.691C25.9148 262.22 28.0753 265.658 30.0332 269.131Z" fill="white"/>
<path d="M56.7581 282.054C56.8192 280.984 57.2997 279.981 58.0957 279.262C58.8916 278.542 59.9391 278.165 61.0115 278.211C62.0414 278.275 63.0053 278.738 63.6971 279.503C64.389 280.267 64.7538 281.272 64.7136 282.301C64.7077 282.832 64.5925 283.356 64.3751 283.84C64.1578 284.324 63.843 284.758 63.4503 285.115C63.0576 285.473 62.5955 285.746 62.0927 285.917C61.5899 286.088 61.0572 286.154 60.5277 286.111C59.4969 286.05 58.5295 285.595 57.8271 284.839C57.1248 284.083 56.7418 283.085 56.7581 282.054ZM60.8315 279.357C59.8863 280.694 58.9073 281.47 58.9861 282.133C59.0649 282.796 60.1113 283.47 60.7415 284.133C61.4054 283.504 62.4969 282.931 62.6094 282.212C62.7219 281.492 61.743 280.728 60.8315 279.357Z" fill="white"/>
<path d="M30.4607 258.916C29.4275 258.888 28.4412 258.479 27.6929 257.767C26.9446 257.055 26.4874 256.091 26.4098 255.061C26.4008 254.533 26.4966 254.007 26.6917 253.516C26.8868 253.024 27.1772 252.576 27.5464 252.197C27.9155 251.818 28.3561 251.515 28.8427 251.307C29.3293 251.098 29.8524 250.988 30.3819 250.982C30.894 250.967 31.404 251.054 31.8822 251.237C32.3605 251.421 32.7976 251.697 33.1681 252.05C33.5387 252.404 33.8353 252.827 34.0408 253.295C34.2463 253.764 34.3566 254.269 34.3653 254.78C34.3833 255.309 34.2964 255.835 34.1094 256.33C33.9225 256.824 33.6393 257.277 33.2763 257.661C32.9132 258.046 32.4775 258.354 31.9942 258.57C31.5109 258.785 30.9897 258.903 30.4607 258.916ZM30.5282 252.072C29.5717 253.364 28.5815 254.129 28.6378 254.814C28.694 255.5 29.763 256.68 30.3594 256.68C30.8011 256.581 31.2097 256.37 31.545 256.067C31.8804 255.764 32.131 255.378 32.2723 254.949C32.3736 254.275 31.4509 253.443 30.5282 252.106V252.072Z" fill="white"/>
<path d="M355.525 326.274C349.663 326.29 343.928 324.568 339.046 321.328C334.164 318.087 330.354 313.473 328.099 308.069C325.844 302.665 325.244 296.714 326.377 290.97C327.509 285.226 330.323 279.946 334.461 275.799C338.599 271.652 343.876 268.825 349.624 267.674C355.372 266.523 361.332 267.102 366.751 269.335C372.17 271.569 376.803 275.358 380.065 280.223C383.327 285.087 385.07 290.809 385.075 296.663C385.063 304.495 381.949 312.005 376.413 317.553C370.877 323.101 363.368 326.236 355.525 326.274ZM327.732 296.686C327.729 302.149 329.348 307.49 332.384 312.036C335.419 316.581 339.735 320.126 344.786 322.223C349.837 324.32 355.398 324.876 360.765 323.82C366.132 322.763 371.066 320.142 374.943 316.288C378.82 312.433 381.466 307.518 382.548 302.163C383.629 296.807 383.098 291.252 381.02 286.198C378.943 281.144 375.412 276.818 370.875 273.767C366.337 270.715 360.996 269.074 355.525 269.052C348.176 269.055 341.127 271.964 335.919 277.142C330.711 282.32 327.767 289.346 327.732 296.686Z" fill="white"/>
<path d="M355.525 272.086C360.395 272.109 365.149 273.571 369.187 276.289C373.225 279.008 376.366 282.86 378.213 287.359C380.061 291.859 380.532 296.804 379.568 301.571C378.603 306.338 376.246 310.712 372.794 314.142C369.342 317.573 364.95 319.905 360.172 320.844C355.394 321.783 350.445 321.288 345.949 319.42C341.452 317.552 337.611 314.396 334.91 310.35C332.208 306.304 330.767 301.549 330.77 296.686C330.765 293.444 331.403 290.233 332.647 287.238C333.891 284.243 335.716 281.524 338.018 279.238C340.319 276.951 343.051 275.142 346.056 273.914C349.061 272.687 352.279 272.066 355.525 272.086ZM378.154 296.731C378.161 292.246 376.835 287.861 374.346 284.129C371.856 280.397 368.313 277.486 364.167 275.766C360.02 274.045 355.455 273.591 351.051 274.462C346.646 275.333 342.598 277.489 339.421 280.657C336.243 283.826 334.078 287.865 333.2 292.263C332.321 296.66 332.769 301.219 334.486 305.363C336.203 309.507 339.112 313.049 342.845 315.541C346.578 318.033 350.967 319.363 355.458 319.363C361.449 319.305 367.178 316.901 371.414 312.669C375.649 308.437 378.053 302.714 378.109 296.731H378.154Z" fill="white"/>
<path d="M340.987 311.823C340.92 310.939 341 310.051 341.223 309.193C343.474 305.159 345.949 301.259 347.975 297.146C349.641 293.692 352.446 290.914 355.919 289.28C359.97 287.28 363.796 284.785 367.779 282.627C368.447 282.4 369.145 282.279 369.85 282.268C369.858 282.971 369.744 283.671 369.512 284.335C366.557 289.632 363.556 294.899 360.51 300.136C360.135 300.799 359.596 301.356 358.946 301.754C353.556 304.878 348.144 307.946 342.731 311.025C342.405 311.182 342.022 311.317 340.987 311.823ZM344.723 307.002L345.094 307.373L357.157 300.428C355.3 298.439 353.59 296.618 351.767 294.652C349.359 298.888 347.041 302.945 344.723 307.002ZM366.103 286.392L365.731 286.032L353.725 292.887L359.059 298.697L366.103 286.392Z" fill="white"/>
<path d="M354.456 278.739C354.384 278.368 354.384 277.986 354.456 277.615C354.745 277.09 355.085 276.593 355.469 276.132C355.83 276.546 356.112 277.022 356.302 277.537C356.454 278.448 356.454 279.378 356.302 280.29C356.212 280.829 355.66 281.279 355.311 281.773C354.977 281.337 354.698 280.861 354.479 280.357C354.397 279.822 354.389 279.277 354.456 278.739Z" fill="white"/>
<path d="M337.701 298.113L334.809 296.798C335.697 296.323 336.654 295.99 337.645 295.809C338.618 295.925 339.567 296.191 340.458 296.596L337.701 298.113Z" fill="white"/>
<path d="M373.304 297.652C373.152 297.681 372.996 297.681 372.843 297.652C372.01 297.349 371.189 297.023 370.356 296.697L372.854 295.753C373.001 295.708 373.158 295.708 373.304 295.753L376.016 296.708L373.529 298.034L373.304 297.652Z" fill="white"/>
<path d="M356.358 314.655C356.431 315.026 356.431 315.407 356.358 315.779C356.066 316.303 355.727 316.799 355.345 317.262C355.064 316.79 354.591 316.352 354.513 315.846C354.361 314.938 354.361 314.012 354.513 313.104C354.614 312.565 355.154 312.104 355.503 311.609C355.841 312.05 356.124 312.529 356.347 313.037C356.419 313.573 356.423 314.117 356.358 314.655Z" fill="white"/>
<defs>
<linearGradient id="paint0_linear" x1="213.732" y1="235.317" x2="178.116" y2="209.448" gradientUnits="userSpaceOnUse">
<stop offset="0.01"/>
<stop offset="0.13" stop-opacity="0.69"/>
<stop offset="1" stop-opacity="0"/>
</linearGradient>
<linearGradient id="paint1_linear" x1="7187.83" y1="36118.4" x2="6325.72" y2="36097" gradientUnits="userSpaceOnUse">
<stop offset="0.01"/>
<stop offset="0.13" stop-opacity="0.69"/>
<stop offset="1" stop-opacity="0"/>
</linearGradient>
<linearGradient id="paint2_linear" x1="12140.8" y1="40245.5" x2="10417.3" y2="40314.5" gradientUnits="userSpaceOnUse">
<stop offset="0.01"/>
<stop offset="0.13" stop-opacity="0.69"/>
<stop offset="1" stop-opacity="0"/>
</linearGradient>
<linearGradient id="paint3_linear" x1="17713.1" y1="26705.5" x2="14032.3" y2="26501.4" gradientUnits="userSpaceOnUse">
<stop offset="0.01"/>
<stop offset="0.13" stop-opacity="0.69"/>
<stop offset="1" stop-opacity="0"/>
</linearGradient>
<linearGradient id="paint4_linear" x1="9161" y1="27110.1" x2="7816.62" y2="27173.7" gradientUnits="userSpaceOnUse">
<stop offset="0.01"/>
<stop offset="0.13" stop-opacity="0.69"/>
<stop offset="1" stop-opacity="0"/>
</linearGradient>
</defs>
</svg>
