<svg width="255" height="170" viewBox="0 0 255 170" fill="none" xmlns="http://www.w3.org/2000/svg">
<path d="M253.488 83.448C253.682 80.9639 253.633 78.4668 253.344 75.992C252.178 66.6575 247.684 58.0567 240.688 51.768C233.488 45.44 228.424 47.36 219.576 45.784C216 45.157 212.318 45.6196 209.008 47.112C209.472 33.448 204.104 22.312 193.312 13.92C171.192 -3.24001 145.232 3.88799 127.96 23.4C120.024 8.95999 107.888 -1.63201 90.2641 1.37599C75.1121 3.95999 62.4561 17.304 60.6641 32.576C54.2641 30.176 46.8481 31.296 40.6641 34.296C34.4801 37.296 29.2561 41.96 24.3601 46.792C18.4561 52.608 12.7441 58.896 9.46411 66.504C7.24011 71.664 7.23211 76.944 7.16811 82.448C7.16811 83.36 8.96011 97.184 10.5601 95.84C-13.6879 116.2 9.87211 153.8 35.1361 159.4C46.3361 161.888 58.8401 159.184 67.3521 151.464C77.7292 158.466 89.3565 163.407 101.6 166.016C118.52 169.624 136.664 171.008 153.344 165.52C157.584 164.128 161.296 161.992 165.344 160.16C170.24 157.936 171.024 159.888 176.12 161.528C184.68 164.28 194.16 163.392 202.648 160.808C211.72 158.048 221.312 151.824 221.976 142.36C231.656 143.024 241.824 138.776 247.136 130.664C252.448 122.552 251.936 110.712 245.064 103.872C246.32 105.12 252.168 92.16 252.432 90.952C252.967 88.4799 253.32 85.9718 253.488 83.448Z" fill="white"/>
<path d="M128.864 169.544C119.66 169.435 110.493 168.363 101.512 166.344C89.3264 163.728 77.7464 158.829 67.384 151.904C59.056 159.312 46.696 162.304 35.048 159.728C19.848 156.36 4.928 141.192 1.008 125.192C-1.8 113.8 1.304 103.4 9.736 96.024C8.016 94.08 6.76 82.92 6.768 82.424V82.04C6.832 76.584 6.896 71.44 9.096 66.32C12.44 58.6 18.272 52.2 24.08 46.504C28.896 41.8 34.2 36.944 40.48 33.912C47.24 30.64 54.44 29.912 60.336 32C62.352 16.8 75.104 3.54399 90.2 0.959986C105.528 -1.65601 118.608 5.85599 128.04 22.696C136.792 13 147.68 6.51998 158.744 4.51198C171 2.28798 183 5.43198 193.552 13.6C204.368 21.992 209.704 33.056 209.424 46.496C212.66 45.1719 216.204 44.7892 219.648 45.392C221.875 45.7778 224.121 46.0449 226.376 46.192C231.6 46.584 235.72 46.888 240.952 51.512C248.017 57.8694 252.56 66.5552 253.752 75.984C254.044 78.4854 254.092 81.0092 253.896 83.52H253.496H253.896C253.711 86.0518 253.348 88.5674 252.808 91.048C252.6 91.992 248.056 102.448 245.84 104.128C252.16 110.968 252.912 122.528 247.44 130.888C242.32 138.712 232.496 143.352 222.312 142.792C221.672 149.08 216.224 157.096 202.728 161.192C195.936 163.256 185.776 165.064 175.968 161.912C174.814 161.534 173.682 161.093 172.576 160.592C170.128 159.512 168.896 158.992 165.48 160.528C164.224 161.096 162.976 161.712 161.776 162.304C159.092 163.695 156.315 164.898 153.464 165.904C145.51 168.421 137.206 169.65 128.864 169.544ZM67.352 151.032C67.4308 151.035 67.5077 151.057 67.576 151.096C77.9151 158.059 89.4913 162.98 101.68 165.592C122.128 169.952 138.992 169.792 153.224 165.112C156.029 164.117 158.761 162.927 161.4 161.552C162.608 160.96 163.856 160.344 165.128 159.768C168.864 158.064 170.376 158.728 172.88 159.824C173.957 160.314 175.06 160.744 176.184 161.112C185.784 164.208 195.784 162.432 202.472 160.392C215.864 156.32 221.096 148.392 221.528 142.304C221.531 142.251 221.544 142.2 221.567 142.153C221.59 142.105 221.623 142.063 221.662 142.028C221.701 141.993 221.747 141.966 221.797 141.949C221.847 141.932 221.899 141.925 221.952 141.928C231.984 142.616 241.72 138.096 246.752 130.408C252.152 122.176 251.264 110.624 244.736 104.12C244.699 104.083 244.669 104.039 244.648 103.99C244.628 103.941 244.618 103.889 244.618 103.836C244.618 103.783 244.628 103.731 244.648 103.682C244.669 103.633 244.699 103.589 244.736 103.552C244.803 103.486 244.891 103.446 244.985 103.439C245.078 103.432 245.172 103.457 245.248 103.512C246.56 103.08 251.648 92.456 251.992 90.84C252.53 88.3975 252.888 85.9189 253.064 83.424C253.26 80.9639 253.212 78.4905 252.92 76.04C251.769 66.7929 247.32 58.2714 240.392 52.04C235.368 47.6 231.368 47.296 226.296 46.92C224.011 46.7744 221.736 46.5074 219.48 46.12C215.984 45.5093 212.386 45.9636 209.152 47.424C209.089 47.4531 209.02 47.4655 208.952 47.46C208.883 47.4545 208.817 47.4313 208.759 47.3926C208.702 47.354 208.656 47.3012 208.625 47.2394C208.595 47.1776 208.58 47.1089 208.584 47.04C209.04 33.592 203.784 22.536 193.04 14.176C182.696 6.17599 170.872 3.05598 158.864 5.23998C147.84 7.30398 136.96 13.8 128.264 23.648C128.22 23.6943 128.166 23.7304 128.107 23.7539C128.048 23.7774 127.984 23.7876 127.92 23.784C127.855 23.7762 127.793 23.7533 127.739 23.7171C127.685 23.681 127.64 23.6327 127.608 23.576C115.896 2.27998 100.872 -0.0480157 90.336 1.75198C75.408 4.29598 62.824 17.56 61.064 32.6C61.0573 32.66 61.0368 32.7177 61.004 32.7686C60.9713 32.8194 60.9273 32.862 60.8754 32.8929C60.8235 32.9239 60.7651 32.9425 60.7049 32.9472C60.6446 32.9519 60.5841 32.9426 60.528 32.92C54.752 30.744 47.576 31.4 40.832 34.6C34.672 37.616 29.4 42.376 24.64 47.08C18.888 52.744 13.12 59.08 9.832 66.664C7.696 71.632 7.632 76.704 7.568 82.072V82.456C7.568 83.88 9.232 94.76 10.328 95.512C10.4092 95.4538 10.5092 95.4281 10.6084 95.4399C10.7076 95.4518 10.7988 95.5003 10.864 95.576C10.9317 95.6582 10.9646 95.7636 10.9556 95.8698C10.9467 95.9759 10.8966 96.0743 10.816 96.144C2.2 103.4 -1 113.64 1.784 125C5.64 140.728 20.328 155.64 35.224 158.944C46.728 161.496 58.936 158.488 67.08 151.104C67.159 151.048 67.2556 151.022 67.352 151.032Z" fill="#D1D3D4"/>
<path d="M90.1361 122.6C81.9681 122.6 81.9201 121.408 80.4001 117C77.6641 109.048 72.4961 102.944 67.1041 96.68C47.1041 73.48 53.9361 37.184 87.9681 31.08C111.04 26.912 130.328 39.12 134.28 61.576C136.24 72.72 133.76 83.296 127.52 92.664C123.272 99.064 119.768 105.52 118.544 113.192C117.744 118.136 118.12 121.056 109.44 121.056C106.296 121.056 103.16 121.544 100.024 121.808C96.7281 121.992 93.4401 122.6 90.1361 122.6Z" fill="white"/>
<path d="M90.136 122.96C82.32 122.96 81.672 121.944 80.2 117.616L80.024 117.08C77.256 109.032 71.936 102.864 66.8 96.896C56.296 84.704 52.816 68.52 57.728 54.656C62.272 41.856 72.984 33.288 87.896 30.592C99.68 28.472 110.888 30.592 119.448 36.552C127.536 42.152 132.808 50.792 134.648 61.416C136.573 72.3662 134.126 83.6347 127.832 92.8C124.144 98.328 120.208 105.064 118.912 113.168C118.848 113.576 118.792 113.968 118.736 114.36C118.12 118.576 117.72 121.368 109.416 121.368C107.276 121.407 105.14 121.559 103.016 121.824C102.016 121.928 101.024 122.032 100.024 122.12C98.904 122.216 97.792 122.336 96.672 122.464C94.5046 122.754 92.3224 122.919 90.136 122.96ZM96.72 30.6C93.8085 30.6053 90.9035 30.8731 88.04 31.4C73.424 34.04 62.928 42.4 58.44 54.944C53.64 68.544 57.048 84.416 67.368 96.392C72.552 102.416 77.92 108.64 80.736 116.84L80.92 117.376C82.24 121.256 82.56 122.176 90.096 122.176C92.2634 122.134 94.4268 121.971 96.576 121.688C97.696 121.56 98.824 121.432 99.952 121.336C100.944 121.256 101.936 121.152 102.928 121.04C105.076 120.775 107.236 120.622 109.4 120.584C117.008 120.584 117.312 118.472 117.928 114.256C117.984 113.872 118.04 113.456 118.112 113.056C119.424 104.808 123.416 97.968 127.152 92.368C133.512 82.824 135.76 72.464 133.848 61.568C132.016 51.168 126.864 42.744 118.952 37.224C112.396 32.7887 104.635 30.4763 96.72 30.6Z" fill="#231F20"/>
<path d="M86.2925 132.497L115.481 130.087C116.696 129.987 117.6 128.92 117.5 127.705L117.075 122.562C116.975 121.347 115.908 120.443 114.693 120.544L85.5045 122.954C84.2892 123.054 83.3853 124.121 83.4857 125.336L83.9103 130.478C84.0106 131.694 85.0771 132.597 86.2925 132.497Z" fill="white"/>
<path d="M86.1041 132.912C85.4483 132.912 84.8167 132.665 84.3348 132.22C83.853 131.776 83.5564 131.166 83.5041 130.512L83.0801 125.376C83.0527 125.033 83.0931 124.689 83.1989 124.362C83.3047 124.035 83.4739 123.732 83.6968 123.471C83.9196 123.209 84.1918 122.994 84.4978 122.838C84.8038 122.682 85.1376 122.587 85.4801 122.56L114.664 120.16C115.355 120.107 116.039 120.329 116.567 120.779C117.095 121.229 117.423 121.869 117.48 122.56L117.904 127.696C117.931 128.038 117.891 128.383 117.785 128.71C117.679 129.037 117.51 129.34 117.287 129.601C117.065 129.863 116.792 130.078 116.486 130.234C116.18 130.39 115.847 130.485 115.504 130.512L86.3201 132.912H86.1041ZM114.864 120.944H114.72L85.5361 123.344C85.2991 123.363 85.0682 123.429 84.8566 123.537C84.6451 123.646 84.457 123.795 84.3032 123.976C84.1493 124.158 84.0328 124.368 83.9602 124.594C83.8876 124.82 83.8604 125.059 83.8801 125.296L84.3041 130.432C84.3449 130.91 84.573 131.352 84.9387 131.662C85.3044 131.973 85.778 132.126 86.2561 132.088L115.44 129.688C115.677 129.669 115.908 129.603 116.12 129.495C116.331 129.386 116.519 129.237 116.673 129.055C116.827 128.874 116.943 128.664 117.016 128.438C117.089 128.211 117.116 127.973 117.096 127.736L116.664 122.6C116.626 122.149 116.42 121.728 116.087 121.421C115.753 121.115 115.317 120.944 114.864 120.944Z" fill="#231F20"/>
<path d="M87.0859 142.034L116.275 139.624C117.49 139.524 118.394 138.457 118.293 137.242L117.869 132.099C117.768 130.884 116.702 129.98 115.487 130.08L86.2979 132.49C85.0826 132.591 84.1788 133.657 84.2791 134.873L84.7037 140.015C84.8041 141.231 85.8706 142.134 87.0859 142.034Z" fill="white"/>
<path d="M86.896 142.456C86.2403 142.456 85.6086 142.209 85.1268 141.764C84.645 141.32 84.3483 140.71 84.296 140.056L83.872 134.912C83.8447 134.57 83.8852 134.226 83.9911 133.899C84.097 133.573 84.2663 133.271 84.4892 133.01C84.7122 132.749 84.9844 132.535 85.2904 132.379C85.5963 132.224 85.9299 132.13 86.272 132.104L115.456 129.704C115.799 129.677 116.143 129.717 116.47 129.823C116.797 129.929 117.1 130.098 117.361 130.321C117.623 130.544 117.838 130.816 117.994 131.122C118.15 131.428 118.245 131.761 118.272 132.104L118.696 137.248C118.723 137.59 118.683 137.935 118.577 138.262C118.471 138.589 118.302 138.892 118.079 139.153C117.856 139.415 117.584 139.63 117.278 139.786C116.972 139.942 116.639 140.037 116.296 140.064L87.1121 142.464H86.896V142.456ZM115.656 130.488H115.504L86.32 132.888C85.8428 132.929 85.4013 133.157 85.0923 133.523C84.7833 133.889 84.6322 134.363 84.672 134.84L85.096 139.984C85.1368 140.461 85.3652 140.903 85.7312 141.212C86.0971 141.521 86.5708 141.672 87.0481 141.632L116.232 139.232C116.469 139.213 116.699 139.147 116.91 139.038C117.122 138.93 117.309 138.78 117.462 138.599C117.616 138.418 117.731 138.208 117.803 137.981C117.875 137.755 117.901 137.517 117.88 137.28L117.456 132.136C117.414 131.687 117.207 131.269 116.874 130.965C116.541 130.66 116.107 130.49 115.656 130.488Z" fill="#231F20"/>
<path d="M88.6479 141.92C88.9439 145.52 95.048 147.952 102.208 147.352C109.368 146.752 115.008 143.352 114.696 139.768L88.6479 141.92Z" fill="#231F20"/>
<path d="M100.008 147.848C93.5279 147.848 88.5359 145.448 88.2479 141.952C88.2412 141.846 88.2758 141.742 88.3445 141.662C88.4132 141.581 88.5105 141.53 88.6159 141.52L114.664 139.4C114.77 139.393 114.874 139.428 114.954 139.497C115.035 139.565 115.086 139.663 115.096 139.768C115.416 143.64 109.768 147.168 102.24 147.768C101.483 147.821 100.739 147.848 100.008 147.848ZM89.1039 142.248C89.4159 143.672 90.7759 144.92 92.9919 145.808C95.9303 146.866 99.0693 147.249 102.176 146.928C108.856 146.376 114.136 143.392 114.304 140.168L89.1039 142.248Z" fill="#231F20"/>
<path d="M91.656 117.736C91.6027 117.733 91.5506 117.719 91.5027 117.696C91.4547 117.672 91.412 117.64 91.377 117.599C91.3419 117.559 91.3153 117.512 91.2986 117.461C91.282 117.411 91.2757 117.357 91.28 117.304C91.9223 108.999 91.5273 100.647 90.104 92.44C87.9568 91.9611 85.8751 91.2251 83.904 90.248C80.4502 88.6689 77.5272 86.1238 75.488 82.92C73.416 79.416 73.088 75.2 74.56 71.92C74.7681 71.3564 75.1133 70.8536 75.5645 70.457C76.0156 70.0603 76.5585 69.7823 77.144 69.648C79.616 69.152 82.28 71.408 83.032 72.112C87.736 76.48 89.24 83.992 90.448 90.024L90.6 90.824L90.792 91.808C94.7189 92.6159 98.7691 92.6159 102.696 91.808C102.786 89.8127 103 87.8249 103.336 85.856C104.432 79.456 106.096 74.696 108.296 71.76C108.999 70.9526 109.861 70.2982 110.828 69.8374C111.794 69.3765 112.845 69.119 113.916 69.0807C114.986 69.0425 116.052 69.2243 117.049 69.615C118.046 70.0057 118.953 70.5969 119.712 71.352C120.584 72.4687 121.159 73.7877 121.384 75.1864C121.61 76.5851 121.477 78.0181 121 79.352C120.039 81.953 118.395 84.2468 116.24 85.992C112.584 89.1882 108.182 91.4114 103.44 92.456C103.152 100.16 104.456 107.92 105.728 115.48L105.888 116.424C105.904 116.529 105.879 116.636 105.818 116.722C105.757 116.809 105.664 116.868 105.56 116.888C105.456 116.904 105.35 116.879 105.265 116.817C105.179 116.756 105.122 116.664 105.104 116.56L104.944 115.616C103.672 108.08 102.376 100.336 102.632 92.632C98.7653 93.4093 94.7839 93.4229 90.912 92.672C92.3042 100.842 92.6858 109.153 92.048 117.416C92.0282 117.506 91.9788 117.586 91.9076 117.644C91.8365 117.702 91.7478 117.735 91.656 117.736ZM77.832 70.376C77.6441 70.3784 77.4567 70.3971 77.272 70.432C76.8135 70.5456 76.3902 70.7709 76.0399 71.0877C75.6895 71.4046 75.423 71.8032 75.264 72.248C74.5908 73.9074 74.3203 75.7026 74.4747 77.4867C74.629 79.2708 75.2038 80.9929 76.152 82.512C78.1178 85.5812 80.9256 88.0196 84.24 89.536C86.0515 90.4273 87.9565 91.1142 89.92 91.584C89.88 91.376 89.832 91.16 89.792 90.952L89.64 90.152C88.448 84.232 86.976 76.872 82.44 72.672C81.208 71.528 79.4 70.376 77.832 70.376ZM114.2 69.8H113.904C112.95 69.8025 112.008 70.0153 111.145 70.4232C110.282 70.8311 109.52 71.4241 108.912 72.16C106.792 75 105.176 79.624 104.112 85.912C103.8 87.7815 103.594 89.6672 103.496 91.56C108.016 90.518 112.209 88.3775 115.704 85.328C117.75 83.6723 119.313 81.498 120.232 79.032C120.661 77.8332 120.782 76.5461 120.585 75.2883C120.388 74.0305 119.879 72.8422 119.104 71.832C118.477 71.1655 117.716 70.6397 116.87 70.2894C116.025 69.9391 115.115 69.7723 114.2 69.8Z" fill="#D1D3D4"/>
<path d="M125.128 119.608C125.456 118.336 125.768 117.072 126.104 115.808C126.28 115.152 126.488 114.504 126.696 113.856C126.801 113.449 127.045 113.092 127.385 112.845C127.725 112.598 128.141 112.478 128.56 112.504C129.568 112.504 130.568 112.664 131.576 112.744C132.106 112.821 132.641 112.848 133.176 112.824C133.576 112.805 133.957 112.65 134.256 112.384C135.312 111.2 136.32 109.984 137.312 108.736C137.476 108.507 137.581 108.241 137.617 107.962C137.654 107.683 137.62 107.399 137.52 107.136C137.176 105.944 136.784 104.736 136.44 103.584C136.294 103.126 136.213 102.649 136.2 102.168C136.199 101.991 136.234 101.816 136.301 101.653C136.368 101.49 136.467 101.341 136.592 101.216C138.338 99.8674 140.277 98.7887 142.344 98.016C142.648 97.8913 142.985 97.8708 143.302 97.9576C143.619 98.0444 143.898 98.2337 144.096 98.496C144.944 99.48 145.824 100.44 146.64 101.448C146.905 101.836 147.279 102.138 147.714 102.316C148.149 102.493 148.627 102.539 149.088 102.448C150.392 102.248 151.72 102.12 153.032 101.952C153.273 101.921 153.503 101.832 153.702 101.693C153.902 101.553 154.064 101.368 154.176 101.152C154.592 100.416 154.976 99.664 155.384 98.928C155.792 98.192 156.072 97.656 156.448 97.032C156.603 96.7118 156.866 96.4563 157.191 96.3101C157.515 96.1639 157.881 96.1363 158.224 96.232C160.104 96.72 161.984 97.224 163.824 97.776C164.178 97.8834 164.484 98.1104 164.69 98.4182C164.896 98.726 164.988 99.0956 164.952 99.464C164.952 100.488 164.784 101.504 164.704 102.528C164.664 103.008 164.632 103.488 164.632 103.976C164.623 104.282 164.686 104.586 164.815 104.864C164.945 105.141 165.136 105.385 165.376 105.576C166.416 106.376 167.464 107.232 168.464 108.104C168.755 108.37 169.113 108.551 169.499 108.627C169.886 108.703 170.286 108.672 170.656 108.536C171.944 108.152 173.216 107.736 174.504 107.344C174.921 107.166 175.39 107.157 175.814 107.318C176.238 107.479 176.583 107.798 176.776 108.208C177.648 109.712 178.488 111.224 179.304 112.76C179.455 112.963 179.563 113.195 179.621 113.441C179.68 113.687 179.688 113.942 179.644 114.192C179.601 114.441 179.507 114.679 179.369 114.891C179.231 115.102 179.051 115.284 178.84 115.424C178.208 116.008 177.52 116.528 176.872 117.096C176.408 117.496 175.952 117.896 175.52 118.36C175.334 118.541 175.193 118.762 175.105 119.006C175.018 119.25 174.987 119.51 175.016 119.768C175.16 121.128 175.288 122.496 175.464 123.864C175.501 124.235 175.635 124.591 175.853 124.894C176.07 125.197 176.364 125.438 176.704 125.592C177.504 125.984 178.304 126.352 179.056 126.752C179.546 126.99 180.022 127.257 180.48 127.552C180.82 127.724 181.088 128.012 181.234 128.364C181.381 128.716 181.397 129.109 181.28 129.472C180.827 131.184 180.333 132.893 179.8 134.6C179.712 134.857 179.596 135.104 179.456 135.336C179.328 135.614 179.117 135.844 178.851 135.995C178.586 136.145 178.28 136.209 177.976 136.176L174.368 135.872C174.28 135.872 174.184 135.872 174.096 135.872C173.589 135.779 173.067 135.84 172.596 136.048C172.125 136.257 171.727 136.602 171.456 137.04C170.848 137.888 170.144 138.64 169.48 139.44C169.171 139.796 168.966 140.229 168.885 140.692C168.805 141.156 168.853 141.633 169.024 142.072C169.408 143.2 169.784 144.328 170.112 145.472C170.44 146.616 170.264 147.232 169.184 147.872C167.632 148.776 166.056 149.632 164.464 150.464C164.118 150.701 163.693 150.793 163.28 150.72C162.867 150.646 162.499 150.414 162.256 150.072C161.552 149.32 160.904 148.52 160.248 147.736C158.832 146.04 158.496 145.912 156.304 146.192L153.744 146.544C153.337 146.584 152.946 146.728 152.61 146.962C152.274 147.196 152.003 147.512 151.824 147.88C151.368 148.784 150.944 149.704 150.464 150.592C150.209 151.053 149.912 151.49 149.576 151.896C149.429 152.102 149.221 152.258 148.981 152.339C148.742 152.421 148.482 152.426 148.24 152.352C146.464 151.848 144.68 151.344 142.896 150.824C142.654 150.744 142.422 150.634 142.208 150.496C141.933 150.364 141.706 150.148 141.561 149.879C141.416 149.61 141.36 149.303 141.4 149C141.496 147.808 141.6 146.6 141.696 145.44C141.696 145.072 141.696 144.712 141.696 144.352C141.705 144.056 141.645 143.762 141.52 143.494C141.395 143.226 141.209 142.991 140.976 142.808C139.968 142.008 138.968 141.208 137.96 140.408C137.675 140.17 137.332 140.014 136.966 139.955C136.6 139.895 136.225 139.936 135.88 140.072C134.752 140.448 133.608 140.792 132.472 141.152L132.344 141.192C130.848 141.584 130.344 141.432 129.576 140.088C128.728 138.6 127.936 137.072 127.176 135.536C126.943 135.182 126.86 134.749 126.945 134.334C127.031 133.918 127.278 133.553 127.632 133.32C128.496 132.52 129.384 131.784 130.312 131.08C130.763 130.773 131.114 130.34 131.321 129.835C131.529 129.33 131.584 128.776 131.48 128.24C131.296 127.016 131.168 125.784 131.008 124.56C130.987 124.304 130.904 124.058 130.764 123.843C130.624 123.628 130.433 123.451 130.208 123.328C129.128 122.752 128.04 122.192 127.008 121.608C126.251 121.302 125.629 120.734 125.256 120.008L125.128 119.608ZM164.896 123.4C164.777 121.854 164.353 120.346 163.647 118.965C162.942 117.584 161.97 116.356 160.787 115.353C159.604 114.35 158.233 113.592 156.755 113.122C155.277 112.652 153.721 112.48 152.176 112.616C149.119 112.95 146.31 114.452 144.336 116.81C142.362 119.167 141.376 122.196 141.584 125.264C141.843 128.34 143.303 131.19 145.648 133.197C147.992 135.205 151.033 136.209 154.112 135.992C161.632 135.4 165.632 128.52 164.896 123.4Z" fill="#0891B2"/>
<path d="M135.656 30.4C135.848 29.6 136.04 28.88 136.24 28.12C136.344 27.728 136.472 27.32 136.6 26.952C136.666 26.7114 136.812 26.5006 137.014 26.355C137.217 26.2094 137.463 26.1377 137.712 26.152C138.32 26.152 138.92 26.248 139.528 26.296C139.851 26.3437 140.178 26.3597 140.504 26.344C140.744 26.3341 140.973 26.2408 141.152 26.08C141.792 25.368 142.392 24.632 142.984 23.888C143.084 23.7517 143.149 23.5926 143.173 23.4251C143.197 23.2576 143.178 23.0868 143.12 22.928C142.904 22.208 142.672 21.504 142.464 20.792C142.377 20.5147 142.328 20.2266 142.32 19.936C142.32 19.8301 142.342 19.7254 142.383 19.6279C142.424 19.5304 142.484 19.4421 142.56 19.368C143.609 18.5577 144.774 17.9104 146.016 17.448C146.198 17.3731 146.399 17.3608 146.589 17.4129C146.779 17.4651 146.946 17.5787 147.064 17.736C147.576 18.328 148.104 18.904 148.592 19.512C148.754 19.7424 148.979 19.9214 149.24 20.0278C149.501 20.1341 149.787 20.1633 150.064 20.112C150.864 19.992 151.664 19.912 152.464 19.808C152.609 19.7888 152.746 19.7342 152.865 19.6491C152.984 19.564 153.079 19.451 153.144 19.32C153.392 18.88 153.624 18.432 153.872 17.984C154.12 17.536 154.288 17.184 154.512 16.848C154.607 16.6581 154.765 16.5075 154.96 16.4227C155.154 16.3378 155.372 16.3241 155.576 16.384C156.712 16.672 157.84 16.976 158.96 17.304C159.171 17.3708 159.353 17.5081 159.476 17.693C159.598 17.878 159.653 18.0993 159.632 18.32C159.632 18.936 159.536 19.544 159.488 20.16C159.488 20.448 159.44 20.744 159.44 21.032C159.432 21.2185 159.469 21.4041 159.547 21.5737C159.625 21.7433 159.742 21.8921 159.888 22.008C160.512 22.512 161.144 23 161.744 23.528C161.92 23.6871 162.135 23.7957 162.368 23.8422C162.6 23.8887 162.841 23.8713 163.064 23.792C163.864 23.552 164.6 23.304 165.368 23.072C165.619 22.9631 165.902 22.9565 166.158 23.0536C166.413 23.1508 166.621 23.344 166.736 23.592C167.264 24.496 167.768 25.408 168.256 26.32C168.345 26.4425 168.409 26.5817 168.443 26.7294C168.478 26.877 168.482 27.0301 168.456 27.1795C168.43 27.3288 168.374 27.4714 168.291 27.5986C168.209 27.7259 168.102 27.8352 167.976 27.92C167.6 28.272 167.176 28.584 166.8 28.92C166.424 29.256 166.24 29.416 166 29.72C165.887 29.8284 165.802 29.9614 165.749 30.1084C165.696 30.2555 165.678 30.4128 165.696 30.568C165.784 31.368 165.856 32.168 165.96 33.032C165.986 33.255 166.069 33.4675 166.201 33.6495C166.333 33.8315 166.508 33.9769 166.712 34.072L168.128 34.76C168.416 34.912 168.704 35.064 168.976 35.24C169.175 35.3483 169.33 35.5225 169.415 35.7327C169.499 35.9429 169.508 36.176 169.44 36.392C169.152 37.416 168.864 38.432 168.56 39.448C168.509 39.6026 168.439 39.7503 168.352 39.888C168.275 40.0546 168.148 40.1934 167.989 40.285C167.83 40.3767 167.647 40.4169 167.464 40.4L165.256 40.2H165.096C164.789 40.1396 164.471 40.1747 164.185 40.3006C163.899 40.4265 163.659 40.6371 163.496 40.904C163.136 41.408 162.696 41.872 162.312 42.36C162.128 42.5782 162.006 42.8416 161.958 43.1229C161.91 43.4043 161.938 43.6933 162.04 43.96C162.272 44.632 162.496 45.312 162.696 46C162.763 46.1304 162.801 46.2734 162.808 46.4197C162.815 46.5659 162.791 46.712 162.737 46.8482C162.683 46.9844 162.601 47.1076 162.496 47.2096C162.391 47.3117 162.266 47.3902 162.128 47.44C161.2 47.984 160.256 48.496 159.296 49.04C159.086 49.1768 158.831 49.2281 158.584 49.1835C158.337 49.1389 158.117 49.0017 157.968 48.8C157.552 48.344 157.168 47.872 156.76 47.4C155.912 46.376 155.712 46.296 154.36 46.472L152.824 46.68C152.579 46.7026 152.344 46.7881 152.143 46.9283C151.941 47.0685 151.779 47.2586 151.672 47.48C151.4 48.016 151.144 48.568 150.872 49.08C150.72 49.3638 150.541 49.6318 150.336 49.88C150.248 50.0034 150.123 50.0966 149.98 50.1467C149.837 50.1968 149.682 50.2015 149.536 50.16L146.336 49.24C146.191 49.188 146.051 49.121 145.92 49.04C145.753 48.964 145.613 48.8375 145.521 48.6782C145.429 48.519 145.39 48.3349 145.408 48.152C145.464 47.44 145.528 46.728 145.584 46.016C145.584 45.8 145.584 45.576 145.584 45.36C145.589 45.1824 145.553 45.0061 145.478 44.845C145.403 44.6839 145.291 44.5425 145.152 44.432L143.336 43C143.166 42.8565 142.96 42.7614 142.74 42.7248C142.521 42.6882 142.295 42.7114 142.088 42.792C141.408 43.016 140.72 43.224 140.04 43.44H139.96C139.064 43.68 138.76 43.584 138.296 42.784C137.832 41.984 137.312 40.968 136.848 40.048C136.775 39.9433 136.725 39.825 136.699 39.7002C136.674 39.5754 136.673 39.4468 136.699 39.3219C136.724 39.1971 136.775 39.0787 136.847 38.9739C136.919 38.8691 137.012 38.78 137.12 38.712C137.64 38.248 138.176 37.792 138.72 37.368C138.99 37.1828 139.2 36.9231 139.325 36.6206C139.45 36.318 139.484 35.9857 139.424 35.664C139.312 34.928 139.24 34.184 139.144 33.448C139.129 33.2926 139.076 33.1434 138.99 33.0135C138.903 32.8837 138.786 32.7773 138.648 32.704C138 32.36 137.344 32.024 136.696 31.672C136.246 31.4945 135.875 31.1627 135.648 30.736L135.656 30.4ZM159.552 32.664C159.479 31.7358 159.224 30.8313 158.8 30.0025C158.375 29.1737 157.791 28.4372 157.081 27.8355C156.371 27.2337 155.548 26.7786 154.661 26.4966C153.774 26.2145 152.839 26.111 151.912 26.192C150.073 26.394 148.383 27.2961 147.191 28.7111C145.999 30.1262 145.398 31.9456 145.512 33.792C145.667 35.6406 146.544 37.3536 147.953 38.5604C149.362 39.7672 151.189 40.3706 153.04 40.24C153.969 40.1817 154.877 39.9379 155.711 39.5232C156.544 39.1084 157.286 38.531 157.893 37.825C158.5 37.1189 158.96 36.2985 159.244 35.4122C159.529 34.5258 159.634 33.5914 159.552 32.664Z" fill="#0891B2"/>
<path d="M50.168 129.216L50.392 114.656L64.528 118.12L66.224 127.328L68.12 137.616L59.064 133.376L50.168 129.216Z" fill="white"/>
<path d="M68.1201 138.016C68.062 138.014 68.0048 138.001 67.9521 137.976L50.0001 129.576C49.9312 129.542 49.8731 129.49 49.8321 129.425C49.7912 129.36 49.769 129.285 49.7681 129.208L49.9921 114.648C49.9959 114.588 50.0121 114.529 50.0396 114.475C50.0672 114.422 50.1054 114.374 50.1521 114.336C50.1997 114.301 50.2543 114.276 50.3123 114.264C50.3702 114.251 50.4302 114.251 50.4881 114.264L64.6001 117.736C64.6744 117.754 64.7421 117.792 64.7947 117.848C64.8473 117.903 64.8825 117.973 64.8961 118.048L68.4881 137.544C68.5035 137.616 68.4981 137.691 68.4726 137.761C68.4471 137.83 68.4026 137.891 68.3441 137.936C68.2778 137.982 68.2005 138.01 68.1201 138.016ZM50.5681 129L67.5921 137L64.1841 118.52L50.7841 115.232L50.5681 129Z" fill="#231F20"/>
<path d="M53.1554 123.169L57.9426 119.473L21.3443 72.0689L16.557 75.7649L53.1554 123.169Z" fill="white"/>
<path d="M53.152 123.576H53.096C53.0436 123.572 52.9928 123.556 52.9471 123.529C52.9015 123.503 52.8622 123.467 52.832 123.424L16.232 76.016C16.1999 75.9743 16.1763 75.9268 16.1625 75.876C16.1488 75.8252 16.1452 75.7722 16.152 75.72C16.1682 75.6162 16.2224 75.5221 16.304 75.456L21.104 71.76C21.1445 71.7272 21.1912 71.703 21.2413 71.6888C21.2914 71.6746 21.3438 71.6708 21.3955 71.6775C21.4471 71.6843 21.4968 71.7014 21.5416 71.728C21.5864 71.7545 21.6253 71.7899 21.656 71.832L58.256 119.232C58.3214 119.315 58.3514 119.42 58.3394 119.525C58.3274 119.63 58.2744 119.726 58.192 119.792L53.392 123.488C53.3244 123.544 53.2397 123.575 53.152 123.576ZM17.104 75.84L53.224 122.6L57.376 119.4L21.264 72.632L17.104 75.84Z" fill="#231F20"/>
<path d="M21.3359 72.072L27.9279 70.72L64.528 118.12L57.9359 119.48L21.3359 72.072Z" fill="#231F20"/>
<path d="M57.9361 119.88C57.8741 119.879 57.8131 119.865 57.7576 119.837C57.7022 119.809 57.6538 119.769 57.6161 119.72L21.0161 72.32C20.9759 72.2653 20.9499 72.2015 20.9406 72.1342C20.9313 72.067 20.9389 71.9985 20.9627 71.935C20.9866 71.8714 21.0259 71.8148 21.0771 71.7703C21.1283 71.7258 21.1899 71.6947 21.2561 71.68L27.8481 70.328C27.9216 70.312 27.9981 70.317 28.0688 70.3424C28.1396 70.3679 28.2017 70.4128 28.2481 70.472L64.8481 117.88C64.8886 117.934 64.9148 117.997 64.9242 118.064C64.9337 118.131 64.926 118.199 64.9021 118.262C64.8781 118.325 64.8386 118.381 64.7872 118.425C64.7358 118.468 64.6742 118.498 64.6081 118.512L58.0161 119.872L57.9361 119.88ZM22.0481 72.336L58.1041 119.04L63.8241 117.856L27.8001 71.16L22.0481 72.336Z" fill="#231F20"/>
<path d="M13.5681 81.808L16.5521 75.776L53.1521 123.176L50.1681 129.208L13.5681 81.808Z" fill="#231F20"/>
<path d="M50.1999 129.616C50.1382 129.614 50.0778 129.598 50.0226 129.571C49.9674 129.543 49.9187 129.504 49.8799 129.456L13.2479 82.056C13.2044 81.9951 13.1778 81.9238 13.1708 81.8494C13.1638 81.7749 13.1766 81.6999 13.2079 81.632L16.1919 75.592C16.2207 75.5304 16.2657 75.4778 16.3221 75.4398C16.3784 75.4018 16.444 75.3797 16.5119 75.376C16.5787 75.3691 16.6461 75.3794 16.7078 75.406C16.7694 75.4326 16.8232 75.4746 16.8639 75.528L53.4639 122.928C53.5046 122.991 53.5262 123.065 53.5262 123.14C53.5262 123.215 53.5046 123.289 53.4639 123.352L50.4879 129.392C50.4571 129.452 50.4117 129.503 50.3557 129.541C50.2997 129.579 50.2351 129.602 50.1679 129.608L50.1999 129.616ZM14.0399 81.8L50.0959 128.504L52.6799 123.264L16.5999 76.52L14.0399 81.8Z" fill="#52525B"/>
<path d="M59.064 133.376L59.624 130.624L63.96 127.28L66.224 127.328L68.12 137.616L59.064 133.376Z" fill="#0891B2"/>
<path d="M68.1201 138.016C68.0619 138.014 68.0048 138.001 67.9521 137.976L58.888 133.736C58.8083 133.697 58.7439 133.633 58.7048 133.553C58.6657 133.473 58.6541 133.383 58.672 133.296L59.24 130.544C59.2573 130.451 59.3087 130.369 59.384 130.312L63.712 126.968C63.7876 126.916 63.8762 126.885 63.968 126.88L66.2401 126.936C66.3303 126.937 66.4175 126.969 66.4863 127.028C66.5551 127.086 66.601 127.167 66.616 127.256L68.512 137.544C68.5274 137.616 68.5221 137.691 68.4966 137.761C68.4711 137.83 68.4266 137.891 68.368 137.936C68.2949 137.986 68.2087 138.014 68.1201 138.016ZM59.512 133.152L67.592 136.928L65.8961 127.72L64.088 127.68L59.984 130.88L59.512 133.152Z" fill="#231F20"/>
<path d="M34.712 19.016C21.888 21.728 13.064 31.312 15 40.424C16.12 45.712 20.6 49.68 26.728 51.544C28.76 55.016 32.872 59.16 41.176 62.224C38.657 59.5226 36.8194 56.2588 35.816 52.704C37.7959 52.6465 39.7665 52.4109 41.704 52C54.504 49.288 63.352 39.704 61.424 30.592C59.496 21.48 47.528 16.304 34.712 19.016Z" fill="white"/>
<path d="M41.1681 62.6C41.1231 62.6083 41.077 62.6083 41.0321 62.6C34.0721 60.032 29.1761 56.432 26.4561 51.88C20.0561 49.872 15.7041 45.736 14.6001 40.504C12.6001 31.192 21.6161 21.376 34.6241 18.6C47.6401 15.848 59.8321 21.176 61.8241 30.488C63.8161 39.8 54.8081 49.608 41.8241 52.368C40.0303 52.7492 38.2081 52.9819 36.3761 53.064C37.4004 56.3587 39.15 59.3821 41.4961 61.912C41.5537 61.9675 41.5933 62.0389 41.6098 62.1171C41.6264 62.1954 41.6191 62.2767 41.589 62.3508C41.5589 62.4248 41.5072 62.4882 41.4408 62.5326C41.3743 62.577 41.296 62.6005 41.2161 62.6H41.1681ZM34.7681 19.4C22.2001 22.072 13.5041 31.456 15.3841 40.336C16.4321 45.312 20.6081 49.256 26.8401 51.16C26.9343 51.1922 27.0156 51.2539 27.0721 51.336C29.4721 55.448 33.7441 58.784 39.7841 61.256C37.7724 58.7651 36.2889 55.8908 35.4241 52.808C35.4083 52.7495 35.406 52.6883 35.4174 52.6288C35.4288 52.5693 35.4535 52.5132 35.4897 52.4647C35.5259 52.4161 35.5726 52.3765 35.6264 52.3486C35.6802 52.3208 35.7396 52.3055 35.8001 52.304C37.753 52.2454 39.6967 52.0125 41.6081 51.608C54.1921 48.944 62.9041 39.552 61.0241 30.672C59.1441 21.792 47.3761 16.744 34.7921 19.4H34.7681Z" fill="#231F20"/>
<path d="M217.376 123.048L156.904 102.712L182.8 25.72L231.048 41.952L239.072 58.536L217.376 123.048Z" fill="#231F20"/>
<path d="M217.4 123.448H217.272L156.8 103.104C156.75 103.088 156.704 103.062 156.665 103.027C156.625 102.993 156.593 102.951 156.57 102.904C156.546 102.857 156.533 102.806 156.53 102.754C156.527 102.702 156.534 102.649 156.552 102.6L182.44 25.608C182.476 25.5081 182.55 25.4264 182.646 25.38C182.741 25.3337 182.851 25.3265 182.952 25.36L231.2 41.584C231.251 41.6014 231.297 41.6288 231.337 41.6645C231.377 41.7002 231.409 41.7436 231.432 41.792L239.432 58.376C239.472 58.4734 239.472 58.5826 239.432 58.68L217.728 123.192C217.712 123.242 217.686 123.289 217.652 123.329C217.618 123.369 217.575 123.401 217.528 123.424C217.487 123.438 217.444 123.447 217.4 123.448ZM157.4 102.464L217.12 122.544L238.632 58.544L230.76 42.272L183.048 26.272L157.4 102.464Z" fill="#52525B"/>
<path d="M211.288 127.024L150.816 106.688L176.712 29.696L224.96 45.92L232.984 62.512L211.288 127.024Z" fill="white"/>
<path d="M211.288 127.4C211.246 127.408 211.202 127.408 211.16 127.4L150.688 107.064C150.589 107.029 150.507 106.957 150.461 106.863C150.414 106.769 150.407 106.66 150.44 106.56L176.328 29.568C176.366 29.4671 176.44 29.3841 176.536 29.336C176.583 29.3145 176.633 29.3034 176.684 29.3034C176.735 29.3034 176.786 29.3145 176.832 29.336L225.088 45.56C225.139 45.577 225.186 45.6042 225.226 45.64C225.266 45.6757 225.298 45.7193 225.32 45.768L233.32 62.352C233.34 62.3989 233.35 62.4492 233.35 62.5C233.35 62.5508 233.34 62.6011 233.32 62.648L211.624 127.168C211.608 127.217 211.582 127.263 211.548 127.301C211.514 127.34 211.471 127.371 211.424 127.392C211.38 127.404 211.334 127.406 211.288 127.4ZM151.288 106.408L211.008 126.496L232.52 62.496L224.64 46.208L176.96 30.2L151.288 106.408Z" fill="#231F20"/>
<path d="M224.96 45.92L220.368 58.264L232.984 62.512L224.96 45.92Z" fill="white"/>
<path d="M232.984 62.904C232.942 62.9118 232.898 62.9118 232.856 62.904L220.24 58.656C220.19 58.6404 220.143 58.6145 220.103 58.5801C220.063 58.5457 220.031 58.5035 220.008 58.456C219.968 58.3558 219.968 58.2442 220.008 58.144L224.6 45.8C224.628 45.7258 224.677 45.6613 224.741 45.6144C224.805 45.5675 224.881 45.5403 224.96 45.536C225.038 45.5345 225.115 45.5556 225.182 45.5967C225.249 45.6378 225.302 45.6973 225.336 45.768L233.336 62.352C233.371 62.4232 233.384 62.5034 233.372 62.582C233.361 62.6605 233.326 62.7338 233.272 62.792C233.194 62.8656 233.091 62.9059 232.984 62.904ZM220.88 58.016L232.216 61.8L225.016 46.904L220.88 58.016Z" fill="#231F20"/>
<path d="M222.28 68.416C222.238 68.4238 222.194 68.4238 222.152 68.416L178.6 53.752C178.501 53.7174 178.419 53.6452 178.373 53.5508C178.326 53.4565 178.319 53.3477 178.352 53.248C178.367 53.1975 178.393 53.1506 178.427 53.1102C178.461 53.0697 178.502 53.0366 178.549 53.0127C178.597 52.9887 178.648 52.9746 178.701 52.971C178.753 52.9675 178.806 52.9746 178.856 52.992L222.408 67.64C222.514 67.657 222.609 67.7154 222.672 67.8024C222.735 67.8894 222.761 67.9979 222.744 68.104C222.727 68.2101 222.669 68.3051 222.582 68.3681C222.495 68.4311 222.386 68.457 222.28 68.44V68.416Z" fill="#D1D3D4"/>
<path d="M219.528 76.6C219.486 76.6078 219.442 76.6078 219.4 76.6L175.848 61.952C175.748 61.9173 175.666 61.8455 175.618 61.7515C175.571 61.6576 175.561 61.5488 175.592 61.448C175.608 61.3972 175.634 61.3502 175.669 61.3097C175.704 61.2692 175.746 61.236 175.794 61.2122C175.842 61.1883 175.894 61.1742 175.947 61.1708C176 61.1673 176.053 61.1745 176.104 61.192L219.656 75.84C219.762 75.857 219.857 75.9154 219.92 76.0024C219.983 76.0894 220.009 76.1979 219.992 76.304C219.975 76.4101 219.917 76.5051 219.829 76.5681C219.742 76.6311 219.634 76.657 219.528 76.64V76.6Z" fill="#D1D3D4"/>
<path d="M216.776 84.784C216.734 84.7918 216.69 84.7918 216.648 84.784L173.096 70.12C172.99 70.086 172.902 70.0113 172.851 69.9123C172.8 69.8133 172.79 69.6981 172.824 69.592C172.858 69.4859 172.933 69.3976 173.032 69.3466C173.131 69.2956 173.246 69.286 173.352 69.32L216.904 83.968C217.01 83.9849 217.105 84.0434 217.168 84.1304C217.231 84.2174 217.257 84.3259 217.24 84.432C217.223 84.538 217.165 84.633 217.078 84.6961C216.991 84.7591 216.882 84.7849 216.776 84.768V84.784Z" fill="#D1D3D4"/>
<path d="M214.024 93C213.982 93.0078 213.938 93.0078 213.896 93L170.344 78.352C170.244 78.3173 170.162 78.2455 170.115 78.1515C170.067 78.0576 170.057 77.9488 170.088 77.848C170.104 77.7972 170.13 77.7502 170.165 77.7097C170.2 77.6692 170.242 77.636 170.29 77.6122C170.338 77.5883 170.39 77.5743 170.443 77.5708C170.496 77.5673 170.55 77.5745 170.6 77.592L214.152 92.2C214.258 92.217 214.353 92.2754 214.416 92.3624C214.479 92.4494 214.505 92.5579 214.488 92.664C214.471 92.7701 214.413 92.8651 214.326 92.9281C214.239 92.9911 214.13 93.017 214.024 93Z" fill="#D1D3D4"/>
<path d="M211.272 101.152C211.23 101.16 211.186 101.16 211.144 101.152L167.592 86.504C167.486 86.4701 167.398 86.3954 167.347 86.2963C167.296 86.1973 167.286 86.0821 167.32 85.976C167.354 85.8699 167.429 85.7817 167.528 85.7307C167.627 85.6796 167.742 85.6701 167.848 85.704L211.4 100.352C211.506 100.369 211.601 100.427 211.664 100.514C211.727 100.601 211.753 100.71 211.736 100.816C211.719 100.922 211.661 101.017 211.574 101.08C211.487 101.143 211.378 101.169 211.272 101.152Z" fill="#D1D3D4"/>
<path d="M195.712 105C195.67 105.008 195.626 105.008 195.584 105L164.84 94.672C164.788 94.6552 164.739 94.6282 164.697 94.5926C164.655 94.5569 164.62 94.5134 164.595 94.4643C164.569 94.4153 164.554 94.3618 164.55 94.3068C164.545 94.2518 164.551 94.1965 164.568 94.144C164.585 94.0915 164.612 94.0428 164.648 94.0007C164.683 93.9586 164.727 93.9239 164.776 93.8986C164.825 93.8734 164.878 93.858 164.933 93.8535C164.988 93.8489 165.044 93.8552 165.096 93.872L195.84 104.208C195.94 104.244 196.022 104.318 196.068 104.414C196.114 104.509 196.122 104.619 196.088 104.72C196.064 104.801 196.014 104.872 195.947 104.922C195.879 104.973 195.797 105 195.712 105Z" fill="#D1D3D4"/>
<path d="M146.68 70.136C146.284 70.136 145.897 70.0185 145.568 69.7984C145.239 69.5782 144.983 69.2654 144.831 68.8995C144.68 68.5336 144.641 68.131 144.719 67.7429C144.797 67.3547 144.988 66.9983 145.269 66.7189C145.549 66.4396 145.906 66.2497 146.295 66.1734C146.683 66.0972 147.086 66.1379 147.451 66.2905C147.816 66.4431 148.128 66.7007 148.347 67.0307C148.566 67.3606 148.682 67.7481 148.68 68.144C148.678 68.673 148.466 69.1797 148.091 69.553C147.716 69.9264 147.209 70.136 146.68 70.136ZM146.68 66.936C146.443 66.936 146.211 67.0064 146.013 67.1382C145.816 67.2701 145.662 67.4575 145.571 67.6768C145.48 67.896 145.457 68.1373 145.503 68.3701C145.549 68.6029 145.664 68.8167 145.831 68.9845C145.999 69.1523 146.213 69.2666 146.446 69.3129C146.679 69.3592 146.92 69.3355 147.139 69.2446C147.358 69.1538 147.546 69 147.678 68.8027C147.81 68.6053 147.88 68.3733 147.88 68.136C147.878 67.8191 147.75 67.5159 147.526 67.2926C147.301 67.0693 146.997 66.944 146.68 66.944V66.936Z" fill="#D1D3D4"/>
<path d="M33.4001 134.08C33.0042 134.082 32.6167 133.966 32.2868 133.747C31.9568 133.528 31.6992 133.216 31.5466 132.851C31.394 132.486 31.3533 132.083 31.4296 131.695C31.5058 131.306 31.6957 130.949 31.975 130.669C32.2544 130.388 32.6108 130.197 32.999 130.119C33.3871 130.041 33.7897 130.08 34.1556 130.231C34.5215 130.383 34.8343 130.639 35.0545 130.968C35.2746 131.297 35.3921 131.684 35.3921 132.08C35.3921 132.609 35.1825 133.116 34.8091 133.491C34.4358 133.866 33.9291 134.078 33.4001 134.08ZM33.4001 130.88C33.1624 130.878 32.9296 130.947 32.7312 131.078C32.5329 131.209 32.3778 131.396 32.2857 131.615C32.1937 131.834 32.1688 132.076 32.2142 132.309C32.2596 132.542 32.3732 132.757 32.5407 132.926C32.7082 133.094 32.922 133.209 33.155 133.256C33.388 133.303 33.6297 133.28 33.8494 133.189C34.0692 133.099 34.2571 132.945 34.3893 132.747C34.5215 132.55 34.5921 132.318 34.5921 132.08C34.5921 131.763 34.4668 131.459 34.2434 131.234C34.0201 131.009 33.717 130.882 33.4001 130.88Z" fill="#D1D3D4"/>
<path d="M46.608 71.12C46.5019 71.12 46.4002 71.0778 46.3252 71.0028C46.2502 70.9278 46.208 70.8261 46.208 70.72V66.544C46.208 66.4379 46.2502 66.3362 46.3252 66.2611C46.4002 66.1861 46.5019 66.144 46.608 66.144C46.7141 66.144 46.8158 66.1861 46.8909 66.2611C46.9659 66.3362 47.008 66.4379 47.008 66.544V70.72C47.006 70.8254 46.9632 70.926 46.8886 71.0005C46.814 71.0751 46.7135 71.1179 46.608 71.12Z" fill="#D1D3D4"/>
<path d="M48.6959 69H44.5199C44.4138 69 44.312 68.9579 44.237 68.8828C44.162 68.8078 44.1199 68.7061 44.1199 68.6C44.1199 68.4939 44.162 68.3922 44.237 68.3172C44.312 68.2422 44.4138 68.2 44.5199 68.2H48.6959C48.802 68.2 48.9037 68.2422 48.9787 68.3172C49.0537 68.3922 49.0959 68.4939 49.0959 68.6C49.0938 68.7054 49.051 68.806 48.9764 68.8806C48.9019 68.9552 48.8013 68.998 48.6959 69Z" fill="#D1D3D4"/>
<path d="M191.584 148.2C191.478 148.2 191.376 148.158 191.301 148.083C191.226 148.008 191.184 147.906 191.184 147.8V143.624C191.184 143.518 191.226 143.416 191.301 143.341C191.376 143.266 191.478 143.224 191.584 143.224C191.69 143.224 191.792 143.266 191.867 143.341C191.942 143.416 191.984 143.518 191.984 143.624V147.8C191.982 147.905 191.939 148.006 191.865 148.081C191.79 148.155 191.69 148.198 191.584 148.2Z" fill="#D1D3D4"/>
<path d="M193.672 146.096H189.496C189.39 146.096 189.288 146.054 189.213 145.979C189.138 145.904 189.096 145.802 189.096 145.696C189.096 145.59 189.138 145.488 189.213 145.413C189.288 145.338 189.39 145.296 189.496 145.296H193.672C193.778 145.296 193.88 145.338 193.955 145.413C194.03 145.488 194.072 145.59 194.072 145.696C194.07 145.801 194.027 145.902 193.953 145.977C193.878 146.051 193.777 146.094 193.672 146.096Z" fill="#D1D3D4"/>
<path d="M114.704 22.864C114.598 22.864 114.496 22.8219 114.421 22.7468C114.346 22.6718 114.304 22.5701 114.304 22.464V18.296C114.304 18.1899 114.346 18.0882 114.421 18.0132C114.496 17.9381 114.598 17.896 114.704 17.896C114.81 17.896 114.912 17.9381 114.987 18.0132C115.062 18.0882 115.104 18.1899 115.104 18.296V22.464C115.104 22.5701 115.062 22.6718 114.987 22.7468C114.912 22.8219 114.81 22.864 114.704 22.864Z" fill="#D1D3D4"/>
<path d="M116.792 20.784H112.6C112.495 20.7819 112.394 20.7391 112.319 20.6646C112.245 20.59 112.202 20.4894 112.2 20.384C112.2 20.2779 112.242 20.1761 112.317 20.1011C112.392 20.0261 112.494 19.984 112.6 19.984H116.776C116.882 19.984 116.984 20.0261 117.059 20.1011C117.134 20.1761 117.176 20.2779 117.176 20.384C117.176 20.4873 117.136 20.5867 117.064 20.6613C116.993 20.7359 116.895 20.7798 116.792 20.784Z" fill="#D1D3D4"/>
<path d="M29.9199 41.864C29.7453 41.8547 29.5716 41.8333 29.3999 41.8C28.6409 41.6863 27.9189 41.3971 27.2912 40.9555C26.6635 40.5139 26.1474 39.932 25.7839 39.256C25.4562 39.6938 25.0436 40.0612 24.5708 40.3361C24.0979 40.611 23.5746 40.7878 23.0319 40.856C22.9258 40.8687 22.819 40.8388 22.735 40.7728C22.651 40.7068 22.5967 40.6101 22.5839 40.504C22.5712 40.3979 22.6011 40.2911 22.6671 40.2071C22.7332 40.1231 22.8298 40.0687 22.9359 40.056C23.4405 39.9916 23.924 39.8143 24.3506 39.5373C24.7772 39.2603 25.1359 38.8907 25.3999 38.456C25.1285 37.7973 25.0044 37.0873 25.0361 36.3756C25.0679 35.664 25.2549 34.9678 25.5839 34.336C25.6171 34.2735 25.6667 34.2212 25.7272 34.1845C25.7878 34.1479 25.8572 34.1284 25.9279 34.128C25.998 34.1278 26.067 34.1452 26.1286 34.1788C26.1901 34.2124 26.2422 34.2609 26.2799 34.32C26.6325 34.9462 26.8217 35.6512 26.8301 36.3698C26.8385 37.0885 26.6658 37.7977 26.3279 38.432V38.504L26.3999 38.664C26.6723 39.3 27.1075 39.853 27.6617 40.2672C28.2159 40.6814 28.8695 40.9422 29.5566 41.0233C30.2437 41.1045 30.9401 41.003 31.5755 40.7293C32.2109 40.4555 32.7629 40.0191 33.1759 39.464C33.549 39.036 33.8441 38.5459 34.0479 38.016C33.8101 37.6 33.6979 37.1239 33.7248 36.6455C33.7518 36.167 33.9168 35.7066 34.1999 35.32C34.2489 35.2643 34.3116 35.2225 34.3818 35.1986C34.452 35.1748 34.5272 35.1697 34.5999 35.184C34.6701 35.2021 34.7343 35.2382 34.7862 35.2887C34.8381 35.3392 34.8759 35.4024 34.8959 35.472C35.1092 36.2904 35.0898 37.152 34.8399 37.96C34.9988 38.2465 35.2303 38.4861 35.5112 38.6546C35.7921 38.8231 36.1124 38.9147 36.4399 38.92C36.8053 38.9024 37.1599 38.7899 37.4685 38.5935C37.7772 38.3971 38.0293 38.1236 38.1999 37.8C38.4081 37.4459 38.5339 37.0494 38.5679 36.64C38.4085 36.2232 38.322 35.7821 38.3119 35.336C38.3111 35.246 38.3407 35.1583 38.3958 35.0872C38.451 35.016 38.5285 34.9656 38.6159 34.944C38.7043 34.9215 38.7976 34.9299 38.8805 34.9677C38.9635 35.0055 39.031 35.0706 39.0719 35.152C39.2751 35.5704 39.3765 36.0309 39.3679 36.496C39.5692 36.9585 39.8664 37.373 40.2399 37.712C40.5607 38.0349 40.9467 38.2856 41.3722 38.4475C41.7976 38.6093 42.2526 38.6785 42.7069 38.6505C43.1612 38.6225 43.6043 38.4979 44.0066 38.285C44.409 38.0721 44.7612 37.7758 45.0399 37.416C45.2393 37.1705 45.4086 36.9019 45.5439 36.616C45.3444 36.3865 45.1651 36.1403 45.0079 35.88C44.8421 35.5785 44.771 35.2341 44.8038 34.8916C44.8366 34.5491 44.9719 34.2245 45.1919 33.96C45.3245 33.8346 45.496 33.7583 45.6778 33.7438C45.8597 33.7292 46.0411 33.7773 46.1919 33.88C46.3315 33.9904 46.4453 34.1299 46.5255 34.2888C46.6056 34.4477 46.6501 34.6221 46.6559 34.8C46.7081 35.3398 46.6482 35.8845 46.4799 36.4C46.7935 36.7008 47.1923 36.8975 47.6218 36.9634C48.0513 37.0292 48.4906 36.961 48.8799 36.768C50.8639 35.904 52.3759 32.84 51.8159 30.808C51.8014 30.757 51.7971 30.7037 51.8033 30.6511C51.8095 30.5985 51.8262 30.5476 51.8522 30.5014C51.8783 30.4553 51.9132 30.4148 51.9551 30.3823C51.9969 30.3497 52.0448 30.3259 52.0959 30.312C52.1978 30.285 52.3061 30.2993 52.3975 30.3517C52.4888 30.4041 52.5559 30.4905 52.5839 30.592C53.2559 32.992 51.5439 36.488 49.1919 37.504C48.7051 37.7364 48.1627 37.8274 47.6266 37.7666C47.0906 37.7057 46.5824 37.4956 46.1599 37.16C46.014 37.4147 45.8453 37.6557 45.6559 37.88C45.3079 38.3225 44.8705 38.6865 44.3721 38.9483C43.8738 39.2101 43.3258 39.3638 42.764 39.3992C42.2022 39.4347 41.6393 39.3512 41.112 39.1542C40.5846 38.9572 40.1048 38.6511 39.7039 38.256C39.499 38.0675 39.314 37.8584 39.1519 37.632C39.0823 37.8112 38.9994 37.985 38.9039 38.152C38.6741 38.5783 38.3416 38.9405 37.9365 39.2059C37.5314 39.4713 37.0665 39.6315 36.5839 39.672C36.201 39.6836 35.8204 39.6091 35.4701 39.4541C35.1198 39.299 34.8088 39.0673 34.5599 38.776C34.3421 39.204 34.0735 39.6042 33.7599 39.968C33.295 40.5429 32.711 41.0102 32.048 41.3375C31.3851 41.6648 30.659 41.8445 29.9199 41.864ZM25.9199 35.6C25.8035 36.1593 25.8035 36.7367 25.9199 37.296C26.0621 36.7399 26.0648 36.1574 25.9279 35.6H25.9199ZM45.7199 34.6C45.6547 34.6711 45.6128 34.7604 45.5999 34.856C45.541 35.0752 45.5638 35.3083 45.6639 35.512C45.7099 35.5923 45.7607 35.6698 45.8159 35.744C45.8519 35.4785 45.8519 35.2094 45.8159 34.944C45.8159 34.688 45.7279 34.616 45.7039 34.6H45.7199Z" fill="#D1D3D4"/>
<path d="M138.712 90.936C139.684 90.936 140.472 90.148 140.472 89.176C140.472 88.204 139.684 87.416 138.712 87.416C137.74 87.416 136.952 88.204 136.952 89.176C136.952 90.148 137.74 90.936 138.712 90.936Z" fill="#D1D3D4"/>
<path d="M61.6799 101.224C62.6519 101.224 63.4399 100.436 63.4399 99.464C63.4399 98.492 62.6519 97.704 61.6799 97.704C60.7079 97.704 59.9199 98.492 59.9199 99.464C59.9199 100.436 60.7079 101.224 61.6799 101.224Z" fill="#D1D3D4"/>
</svg>
