<svg width="70" height="70" viewBox="0 0 70 70" fill="none" xmlns="http://www.w3.org/2000/svg">
<path d="M35 70C54.33 70 70 54.33 70 35C70 15.67 54.33 0 35 0C15.67 0 0 15.67 0 35C0 54.33 15.67 70 35 70Z" fill="#FFA799"/>
<path d="M70 35.0001C70 33.564 69.9135 32.148 69.7454 30.7573L59.4727 20.4845L10.5273 51.5564L28.3377 69.3668C30.4944 69.7824 32.7219 70.0001 35 70.0001C54.33 70.0001 70 54.33 70 35.0001Z" fill="#FF7B66"/>
<path d="M14.8127 18.5919H55.2511L55.7957 53.0813H14.2043L12.3294 23.1492L14.8127 18.5919Z" fill="white"/>
<path d="M55.2511 18.5919H35V53.0813H55.7959L56.0695 24.1515L55.2511 18.5919Z" fill="#E9EDF5"/>
<path d="M55.7957 53.0813V24.3873C55.7957 24.1649 55.6743 23.9567 55.4762 23.8553C55.265 23.7473 55.0599 23.7628 54.8671 23.9016L35 40.5807L15.1328 23.9016C14.9402 23.7628 14.7351 23.7473 14.5238 23.8553C14.3257 23.9565 14.2043 24.1647 14.2043 24.3872V53.0814C11.3349 53.0814 9.00894 50.7554 9.00894 47.8861V24.3773C9.00894 22.1975 10.2141 20.2259 12.1542 19.2319C14.0943 18.238 16.3985 18.4115 18.1677 19.6849L35 34.1797L51.8322 19.6849C53.6216 18.397 55.9583 18.2342 57.9117 19.2662C59.8302 20.2797 60.991 22.3125 60.991 24.4822V47.8861C60.991 50.7553 58.665 53.0813 55.7957 53.0813Z" fill="#FF583E"/>
<path d="M57.9119 19.2664C55.9584 18.2344 53.6218 18.3973 51.8324 19.685L35 34.1656V40.5669L54.8671 23.9017C55.0599 23.7629 55.265 23.7475 55.4762 23.8555C55.6743 23.9568 55.7957 24.1649 55.7957 24.3875V53.0814C58.6651 53.0814 60.9911 50.7554 60.9911 47.8861V24.4823C60.9911 22.3126 59.8302 20.2799 57.9119 19.2664Z" fill="#F92814"/>
</svg>
