<svg width="70" height="70" viewBox="0 0 70 70" fill="none" xmlns="http://www.w3.org/2000/svg">
<g clip-path="url(#clip0)">
<path d="M35.0009 69.9997C54.3308 69.9997 70.0007 54.3298 70.0007 34.9999C70.0007 15.67 54.3308 0 35.0009 0C15.671 0 0.00100708 15.67 0.00100708 34.9999C0.00100708 54.3298 15.671 69.9997 35.0009 69.9997Z" fill="#4376B1"/>
<path d="M69.8652 31.942L53.9667 16.0231C44.2549 17.2859 34.1056 17.0975 24.3938 17.3234C20.3872 17.3234 16.3804 19.2089 17.0875 23.6869C18.5015 32.6431 19.2086 41.3637 17.5589 50.5555C17.2991 51.7237 16.7526 52.8919 16.039 53.9815L31.921 69.8637C32.9356 69.952 33.962 69.9998 34.9997 69.9998C54.3295 69.9998 69.9996 54.3297 69.9996 35C69.9999 33.9691 69.9527 32.9497 69.8652 31.942Z" fill="#336699"/>
<path d="M51.4092 14.9663H18.5908C16.5889 14.9663 14.9664 16.5887 14.9664 18.5907V51.4088C14.9664 53.4102 16.5889 55.0332 18.5908 55.0332H51.4089C53.4103 55.0332 55.0333 53.4102 55.0333 51.4088V18.5907C55.0336 16.5887 53.4106 14.9663 51.4092 14.9663ZM27.3648 49.5627C27.3648 50.1455 26.8928 50.6176 26.3099 50.6176H21.8205C21.2377 50.6176 20.7656 50.1453 20.7656 49.5627V30.7419C20.7656 30.1591 21.238 29.687 21.8205 29.687H26.3102C26.893 29.687 27.3651 30.1594 27.3651 30.7419V49.5627H27.3648ZM24.0651 27.9127C21.7095 27.9127 19.8001 26.0029 19.8001 23.647C19.8001 21.2914 21.7094 19.3819 24.0651 19.3819C26.4211 19.3819 28.3305 21.2917 28.3305 23.647C28.3305 26.0032 26.4209 27.9127 24.0651 27.9127ZM50.8281 49.6478C50.8281 50.1834 50.3941 50.6179 49.8588 50.6179H45.0406C44.5053 50.6179 44.071 50.1836 44.071 49.6478V40.8193C44.071 39.5027 44.4574 35.0484 40.6295 35.0484C37.6601 35.0484 37.0579 38.0972 36.937 39.465V49.6475C36.937 50.1831 36.503 50.6176 35.9672 50.6176H31.3075C30.7719 50.6176 30.3374 50.1833 30.3374 49.6475V30.6569C30.3374 30.1212 30.7717 29.6868 31.3075 29.6868H35.9672C36.5028 29.6868 36.937 30.1211 36.937 30.6569V32.2988C38.0382 30.6465 39.6745 29.3708 43.158 29.3708C50.8723 29.3708 50.8286 36.5782 50.8286 40.5388V49.6479H50.8281V49.6478Z" fill="white"/>
<path d="M51.4092 14.9663H34.9215V29.6868H35.967C36.5027 29.6868 36.9369 30.1211 36.9369 30.6569V32.2988C38.038 30.6465 39.6744 29.3708 43.158 29.3708C50.8723 29.3708 50.8286 36.5782 50.8286 40.5388V49.6476C50.8286 50.1833 50.3945 50.6178 49.8592 50.6178H45.041C44.5057 50.6178 44.0714 50.1834 44.0714 49.6476V40.8192C44.0714 39.5026 44.4578 35.0483 40.6299 35.0483C37.6605 35.0483 37.0583 38.0971 36.9374 39.4648V49.6473C36.9374 50.183 36.5034 50.6175 35.9676 50.6175H34.9221V55.0336H51.4097C53.4112 55.0336 55.0341 53.4106 55.0341 51.4092V18.5907C55.0336 16.5887 53.4106 14.9663 51.4092 14.9663Z" fill="#D1D1D1"/>
</g>
<defs>
<clipPath id="clip0">
<rect width="70" height="70" fill="white"/>
</clipPath>
</defs>
</svg>
