<svg width="822" height="484" viewBox="0 0 822 484" fill="none" xmlns="http://www.w3.org/2000/svg">
<path opacity="0.24" d="M93.9331 110.243C69.2615 143.591 31.198 173.028 11.3148 207.551C-8.56833 242.074 -4.6762 286.249 42.6312 308.465C92.6656 331.961 165.976 320.853 223.948 335.921C269.092 347.657 300.063 373.978 343.017 388.507C364.36 395.752 388.135 399.833 412.153 402.409C537.329 415.843 667.536 387.517 768.335 339.833C783.058 332.871 797.526 325.344 807.346 315.621C832.401 290.821 821.596 258.27 802.75 231.449C783.903 204.629 757.58 178.879 752.907 149.789C748.503 122.309 762.906 91.4398 737.019 68.9018C708.109 43.7316 647.013 44.8987 598.745 53.1654C550.478 61.432 499.189 74.0936 452.406 63.1707C380.927 46.4442 327.999 -0.942031 242.397 0.563189C152.149 2.15695 123.943 69.6584 93.9331 110.243Z" fill="#3B82F6"/>
<path d="M503.438 144.973C503.685 148.733 502.796 152.48 500.886 155.728C496.894 162.943 488.729 168.297 480.468 170.437C468.417 173.516 455.704 172.01 443.375 173.66C431.877 175.215 420.922 179.513 411.434 186.191C401.177 193.444 390.326 204.017 378.16 200.582C367.826 197.704 363.029 183.178 369.62 174.677C353.376 172.766 336.912 174.97 321.743 181.086C315.679 183.533 309.73 186.651 303.215 187.073C296.701 187.495 289.341 184.31 287.595 178.035C285.599 170.964 291.519 163.922 298.149 160.67C301.568 159.108 305.095 157.796 308.704 156.745C312.122 155.694 315.411 154.261 318.509 152.476C320.08 151.502 321.497 150.299 322.712 148.907C326.55 144.599 328.469 138.612 325.475 133.911C323.823 131.543 321.476 129.746 318.759 128.768C310.277 125.372 300.577 126.945 291.75 124.595C282.923 122.244 274.661 112.122 279.737 104.447C284.227 97.7976 293.506 98.0087 303.868 99.6494C315.113 101.396 327.586 104.869 336.49 103.046C341.777 101.962 345.806 99.0161 347.591 92.751C350.709 81.7558 331.798 65.9539 348.186 57.4437C358.74 51.9845 370.321 66.4816 381.46 61.79C389.338 58.4607 390.46 47.9549 390.777 39.4063C391.093 30.8577 393.655 20.2175 402.051 18.5001C408.22 17.2433 414.274 22.2803 416.443 28.2C417.135 30.107 417.571 32.0978 417.738 34.1198C418.064 38.3943 417.933 42.6914 417.345 46.9379C417.028 50.056 416.75 53.3469 418.112 56.1197C420.357 60.6674 425.222 61.6172 430.23 60.4563C434.582 59.4131 438.564 57.1964 441.744 54.0473C448.249 47.4655 454.869 38.3989 464.119 39.3103C470.461 39.934 474.385 44.9134 476.131 51.1498C477.57 56.4026 477.63 61.9378 476.304 67.2204C473.368 78.4266 466.988 89.7 470.039 100.877C474.99 119.164 502.133 126.13 503.438 144.973Z" fill="#3B82F6"/>
<path d="M503.438 144.973C503.685 148.733 502.796 152.48 500.886 155.728C498.532 156.697 496.095 157.445 493.603 157.964C481.552 160.487 468.839 159.259 456.51 160.593C445.276 161.782 434.405 165.263 424.569 170.82C414.303 176.702 403.461 185.318 391.333 182.583C381 180.242 376.164 168.403 382.698 161.476C366.553 159.902 350.257 161.679 334.83 166.695C328.804 168.69 322.817 171.214 316.302 171.559C309.788 171.905 302.64 174.61 300.884 169.525C299.176 164.594 303.234 159.72 308.56 156.784C309.473 156.227 310.436 155.758 311.438 155.383C315.396 153.578 319.171 151.396 322.712 148.869C325.596 146.86 328.595 145.021 331.692 143.361C337.929 140.214 342.515 133.306 338.629 128.231C337.123 126.235 334.571 124.902 331.913 124.029C323.403 121.265 313.741 122.561 304.914 120.632C296.086 118.704 287.787 110.472 292.863 104.322C295.28 101.386 299.166 100.091 303.858 99.7741C315.103 101.52 327.576 104.993 336.48 103.17C347.859 104.399 357.675 103.621 360.755 94.7946C363.835 85.9678 344.923 73.0154 361.311 66.0786C371.865 61.6364 383.485 73.4375 394.586 69.619C402.501 66.8846 403.586 58.3456 403.941 51.3897C404.296 44.4337 406.8 35.6645 415.166 34.3021C416.023 34.1626 416.892 34.1271 417.757 34.1965C418.072 38.4463 417.933 42.7174 417.344 46.9379C417.028 50.056 416.75 53.3469 418.112 56.1197C420.357 60.6674 425.222 61.6173 430.23 60.4563C430.155 62.0101 430.521 63.5535 431.286 64.9081C435.382 71.6242 448.374 68.5828 454.889 63.1907C461.125 58.0482 467.429 51.0443 476.112 51.1498C477.551 56.4026 477.61 61.9378 476.285 67.2204C473.349 78.4266 466.968 89.7 470.019 100.877C474.989 119.164 502.133 126.13 503.438 144.973Z" fill="url(#paint0_linear)"/>
<path d="M352.158 37.6025C349.558 35.4246 347.198 32.3065 347.706 28.9676C347.842 28.0401 348.192 27.157 348.73 26.3887C349.267 25.6203 349.976 24.9879 350.8 24.5417C351.625 24.0954 352.542 23.8478 353.479 23.8183C354.416 23.7888 355.347 23.9784 356.198 24.3719C359.277 25.7823 360.621 29.5241 360.63 32.9205C360.63 34.7146 360.765 40.241 358.827 41.1333C356.888 42.0256 353.454 38.6867 352.158 37.6025Z" fill="#3B82F6"/>
<path d="M282.76 135.024C281.553 135.543 280.6 136.52 280.111 137.739C278.192 141.577 278.519 146.911 281.982 149.454C287.336 153.378 297.334 152.457 298.092 144.657C298.754 138.084 288.372 133.21 282.76 135.024Z" fill="#3B82F6"/>
<path d="M329.879 29.8887C329.659 28.1233 328.104 26.8664 326.665 25.8111C324.171 23.9785 320.688 22.1268 318.241 24.0361C316.591 25.3217 316.399 27.8739 317.224 29.7927C318.196 31.6673 319.568 33.3051 321.244 34.5899C322.399 35.779 323.81 36.688 325.37 37.2476C326.972 37.6697 328.949 37.1612 329.659 35.6741C330.369 34.1869 330.052 31.7788 331.674 31.4813" fill="#3B82F6"/>
<path d="M286.108 73.687C285.662 73.2204 285.101 72.8782 284.482 72.6944C283.863 72.5105 283.207 72.4912 282.578 72.6385C281.95 72.7857 281.37 73.0944 280.897 73.534C280.424 73.9736 280.074 74.529 279.881 75.1453C279.325 76.8723 280.102 78.7624 281.215 80.192C281.943 81.2522 283.042 82.0017 284.295 82.2931C286.482 82.6097 288.43 80.5661 288.91 78.4554C289.212 77.2856 289.072 76.0454 288.517 74.9726C288.243 74.4535 287.827 74.0238 287.317 73.7347C286.806 73.4455 286.224 73.3091 285.638 73.3416" fill="#3B82F6"/>
<path d="M328.949 47.8397C328.646 47.5273 328.268 47.2981 327.851 47.1742C327.434 47.0503 326.992 47.0358 326.568 47.1322C326.144 47.2286 325.752 47.4326 325.429 47.7246C325.107 48.0166 324.865 48.3866 324.727 48.7992C324.591 49.4028 324.602 50.0304 324.761 50.6284C324.92 51.2265 325.221 51.7773 325.638 52.234C326.132 52.9595 326.883 53.4705 327.74 53.6635C329.227 53.8842 330.551 52.493 330.877 51.0251C331.089 50.2295 330.993 49.3833 330.609 48.6553C330.413 48.2992 330.119 48.0073 329.762 47.8149C329.404 47.6225 328.998 47.5378 328.594 47.5711" fill="#3B82F6"/>
<path opacity="0.24" d="M418.87 361.806C450.389 359.82 486.782 362.113 506.182 387.049C513.724 396.749 517.754 408.982 526.207 417.904C542.738 435.385 570.179 435.03 594.185 433.409C619.419 431.711 647.119 428.919 664.677 410.709C687.964 386.56 685.248 343.097 712.814 323.975C723.896 316.3 737.847 314.266 750.138 308.73C762.428 303.194 774.124 291.268 771.553 278.028C768.732 263.435 751.404 257.448 736.868 254.531C632.011 233.632 524.205 232.179 418.822 250.243C391.535 254.934 363.288 261.487 342.065 279.266C324.852 293.657 304.799 330.26 324.353 349.794C344.396 369.846 394.126 363.37 418.87 361.806Z" fill="#3B82F6"/>
<path d="M395.574 218.61C575.955 175.637 665.809 264.394 674.291 328.283C681.381 381.666 655.754 455.994 561.217 432.305C489.794 414.402 550.855 360.127 489.046 347.319C442.694 337.724 350.364 348.834 311.649 326.518C307.495 324.119 215.222 261.574 395.574 218.61Z" fill="#3B82F6"/>
<path d="M395.574 218.61C575.955 175.637 665.809 264.394 674.291 328.283C681.382 381.666 655.754 455.994 561.217 432.305C489.794 414.402 550.855 360.127 489.046 347.319C442.032 337.561 347.601 349.161 309.961 325.501C306.526 323.342 215.222 261.574 395.574 218.61Z" fill="url(#paint1_linear)"/>
<path d="M301.153 302.273C301.153 302.273 215.222 245.743 395.574 202.779C575.926 159.816 665.809 248.573 674.291 312.453C681.382 365.836 655.754 440.173 561.217 416.475C489.794 398.572 550.855 344.296 489.046 331.488C437.714 320.848 329.994 335.633 301.153 302.273Z" fill="#3B82F6"/>
<path d="M398.539 244.333C398.659 246.335 398.156 248.326 397.1 250.032C393.205 257.103 381.432 262.763 367.222 263.608C352.321 264.567 339.397 259.875 335.252 252.766C334.411 251.406 333.914 249.862 333.804 248.266C333.247 238.672 347.236 230.037 365.13 228.991C383.025 227.945 397.944 234.777 398.539 244.333Z" fill="url(#paint2_linear)"/>
<path d="M498.017 221.719C498.132 223.735 497.641 225.74 496.607 227.475C492.673 234.546 480.948 240.159 466.729 241.003C451.838 241.963 438.904 237.271 434.769 230.162C433.905 228.816 433.406 227.268 433.32 225.671C432.754 216.077 446.752 207.442 464.608 206.387C482.464 205.331 497.451 212.163 498.017 221.719Z" fill="url(#paint3_linear)"/>
<path d="M473.924 266.937C474.035 268.943 473.529 270.935 472.476 272.645C468.58 279.707 456.817 285.368 442.598 286.212C427.697 287.171 414.773 282.48 410.628 275.37C409.781 274.014 409.286 272.467 409.189 270.871C408.623 261.276 422.622 252.641 440.506 251.595C458.391 250.55 473.32 257.381 473.924 266.937Z" fill="url(#paint4_linear)"/>
<path d="M582.47 246.213C582.586 248.22 582.08 250.213 581.021 251.922C577.126 258.983 565.363 264.653 551.143 265.498C536.252 266.457 523.318 261.756 519.183 254.646C518.336 253.293 517.838 251.75 517.734 250.156C517.168 240.562 531.167 231.927 549.061 230.881C566.955 229.835 581.865 236.657 582.47 246.213Z" fill="url(#paint5_linear)"/>
<path d="M649.172 288.62C649.295 290.636 648.807 292.643 647.771 294.377C643.837 301.438 632.065 307.109 617.855 307.943C602.916 308.903 590.03 304.211 585.885 297.063C585.056 295.718 584.571 294.189 584.475 292.611C583.88 283.017 597.907 274.382 615.763 273.336C633.619 272.291 648.568 279.064 649.172 288.62Z" fill="url(#paint6_linear)"/>
<path d="M619.534 344.603C619.644 346.6 619.157 348.584 618.133 350.302C614.238 357.373 602.465 363.034 588.255 363.878C573.317 364.838 560.383 360.146 556.248 352.998C555.416 351.65 554.932 350.118 554.837 348.537C554.242 338.943 568.27 330.308 586.125 329.262C603.981 328.216 618.939 335.047 619.534 344.603Z" fill="url(#paint7_linear)"/>
<path d="M558.339 291.431C558.449 293.437 557.944 295.429 556.89 297.14C552.995 304.201 541.232 309.872 527.051 310.706C512.112 311.666 499.178 306.974 495.043 299.826C494.211 298.483 493.729 296.952 493.642 295.375C493.037 285.78 507.074 277.222 524.921 276.1C542.767 274.977 557.735 281.875 558.339 291.431Z" fill="url(#paint8_linear)"/>
<path d="M397.1 250.032C393.205 257.103 381.432 262.763 367.222 263.608C352.321 264.567 339.397 259.875 335.252 252.766C339.148 245.695 350.911 240.034 365.13 239.19C380.031 238.269 392.917 242.922 397.1 250.032Z" fill="#3B82F6"/>
<path d="M496.607 227.427C492.673 234.498 480.948 240.111 466.729 240.955C451.838 241.915 438.904 237.223 434.769 230.114C438.664 223.052 450.389 217.382 464.608 216.547C479.547 215.655 492.433 220.318 496.607 227.427Z" fill="#3B82F6"/>
<path d="M472.476 272.646C468.581 279.707 456.817 285.368 442.598 286.212C427.697 287.171 414.773 282.48 410.628 275.37C414.524 268.309 426.297 262.639 440.506 261.794C455.407 260.892 468.302 265.536 472.476 272.646Z" fill="#3B82F6"/>
<path d="M581.021 251.922C577.126 258.983 565.362 264.653 551.143 265.498C536.252 266.457 523.318 261.756 519.183 254.646C523.079 247.585 534.842 241.924 549.061 241.08C563.962 240.149 576.847 244.812 581.021 251.922Z" fill="#3B82F6"/>
<path d="M647.771 294.329C643.837 301.39 632.065 307.061 617.855 307.895C602.916 308.855 590.03 304.163 585.885 297.015C589.781 289.954 601.544 284.331 615.763 283.439C630.702 282.518 643.588 287.181 647.771 294.329Z" fill="#3B82F6"/>
<path d="M618.095 350.302C614.199 357.373 602.427 363.034 588.217 363.878C573.278 364.838 560.344 360.146 556.209 352.998C560.104 345.927 571.868 340.267 586.087 339.422C601.026 338.501 613.96 343.155 618.095 350.302Z" fill="#3B82F6"/>
<path d="M556.89 297.14C552.995 304.201 541.231 309.872 527.05 310.706C512.111 311.666 499.178 306.974 495.042 299.826C498.976 292.765 510.711 287.143 524.92 286.298C539.821 285.368 552.716 290.031 556.89 297.14Z" fill="#3B82F6"/>
<path d="M397.1 250.032C393.205 257.103 381.432 262.763 367.222 263.608C352.321 264.567 339.397 259.875 335.252 252.766C339.148 245.695 350.911 240.034 365.13 239.19C380.031 238.269 392.917 242.922 397.1 250.032Z" fill="url(#paint9_linear)"/>
<path d="M496.607 227.427C492.673 234.498 480.948 240.111 466.729 240.955C451.838 241.915 438.904 237.223 434.769 230.114C438.664 223.052 450.389 217.382 464.608 216.547C479.547 215.655 492.433 220.318 496.607 227.427Z" fill="url(#paint10_linear)"/>
<path d="M472.476 272.646C468.581 279.707 456.817 285.368 442.598 286.212C427.697 287.171 414.773 282.48 410.628 275.37C414.524 268.309 426.297 262.639 440.506 261.794C455.407 260.892 468.302 265.536 472.476 272.646Z" fill="url(#paint11_linear)"/>
<path d="M581.021 251.922C577.126 258.983 565.362 264.653 551.143 265.498C536.252 266.457 523.318 261.756 519.183 254.646C523.079 247.585 534.842 241.924 549.061 241.08C563.962 240.149 576.847 244.812 581.021 251.922Z" fill="url(#paint12_linear)"/>
<path d="M647.771 294.329C643.837 301.39 632.065 307.061 617.855 307.895C602.916 308.855 590.03 304.163 585.885 297.015C589.781 289.954 601.544 284.331 615.763 283.439C630.702 282.518 643.588 287.181 647.771 294.329Z" fill="url(#paint13_linear)"/>
<path d="M618.095 350.302C614.199 357.373 602.427 363.034 588.217 363.878C573.278 364.838 560.344 360.146 556.209 352.998C560.104 345.927 571.868 340.267 586.087 339.422C601.026 338.501 613.96 343.155 618.095 350.302Z" fill="url(#paint14_linear)"/>
<path d="M556.89 297.14C552.995 304.201 541.231 309.872 527.05 310.706C512.111 311.666 499.178 306.974 495.042 299.826C498.976 292.765 510.711 287.143 524.92 286.298C539.821 285.368 552.716 290.031 556.89 297.14Z" fill="url(#paint15_linear)"/>
<path d="M682.907 135.283C682.907 135.283 677.457 131.388 676.498 130.016C675.538 128.644 678.935 124.499 677.937 123.597C676.939 122.695 673.245 120.805 673.61 119.001C673.974 117.197 680.115 121.342 682.907 123.415C685.699 125.487 688.232 131.004 688.232 131.004C688.232 131.004 687.512 136.319 682.907 135.283Z" fill="#C58067"/>
<path d="M643.281 156.141L760.02 69.7245L801.057 38.8018C801.057 38.8018 803.033 32.3928 797.113 32.8821C791.193 33.3714 593.312 166.004 593.312 166.004L578.853 178.477L593.974 195.564L643.281 156.141Z" fill="#3B82F6"/>
<path d="M643.281 156.141L760.02 69.7245L801.057 38.8018C801.057 38.8018 803.033 32.3928 797.113 32.8821C791.193 33.3714 593.312 166.004 593.312 166.004L578.853 178.477L593.974 195.564L643.281 156.141Z" fill="url(#paint16_linear)"/>
<path d="M739.046 111.038C739.046 111.038 749.6 107.824 750.694 108.889C751.788 109.954 742.375 176.663 741.896 179.513C741.416 182.362 725.728 181.432 719.07 179.513C714.635 178.178 710.337 176.427 706.232 174.284C706.232 174.284 713.908 113.341 715.318 112.391C716.729 111.441 727.081 110.606 727.081 110.606L739.046 111.038Z" fill="#3B82F6"/>
<path d="M716.748 111.767C715.098 112.342 713.624 113.334 712.469 114.645C711.049 116.564 699.631 139.38 701.061 144.129C702.49 148.878 707.412 152.361 708.842 151.411C710.272 150.461 712.948 141.749 713.419 139.85C713.889 137.95 714.819 131.685 714.819 131.685L716.748 111.767Z" fill="#3B82F6"/>
<path d="M700.782 272.741C700.782 272.741 698.767 280.321 697.827 280.877C696.886 281.434 693.595 279.688 691.686 278.306C689.777 276.925 690.458 273.979 690.458 273.979L691.293 271.667L700.782 272.741Z" fill="#C58067"/>
<path d="M751.299 269.076C751.299 269.076 754.973 279.4 754.599 280.427C754.225 281.453 749.802 279.956 747.403 280.11C745.004 280.263 744.15 276.618 744.15 276.618L743.306 274.325L751.299 269.076Z" fill="#C58067"/>
<path d="M739.996 105.329C739.996 105.329 738.566 111.508 739.036 113.887C739.506 116.267 735.707 122.925 730.948 122.925C726.189 122.925 726.15 114.837 726.15 113.887C726.15 112.938 727.58 112.467 727.11 110.05C726.64 107.632 739.516 102.48 739.996 105.329Z" fill="#C58067"/>
<path d="M727.158 110.088C727.286 110.644 727.284 111.221 727.15 111.776C727.017 112.33 726.757 112.846 726.391 113.283C727.434 114.328 728.83 114.948 730.305 115.02C733.184 115.02 737.434 112.64 739.343 108.361L739.439 108.121C739.708 106.557 739.996 105.329 739.996 105.329C739.516 102.48 726.678 107.709 727.158 110.088Z" fill="#B6765E"/>
<path d="M738.95 113.005C738.95 113.005 735.112 121.975 731.85 122.925C731.85 122.925 730.958 123.405 733.337 124.844C735.717 126.283 742.375 119.088 741.425 113.907C741.323 113.241 741.052 112.612 740.637 112.081C740.222 111.55 739.677 111.135 739.056 110.875L738.95 113.005Z" fill="white"/>
<path d="M727.158 111.038C727.158 111.038 726.103 117.639 728.77 122.187C728.77 122.187 727.628 123.875 726.678 123.875C725.728 123.875 723.349 118.167 724.299 113.887C724.855 111.393 726.678 110.357 727.158 111.038Z" fill="white"/>
<path d="M741.895 179.513L736.695 220.884L752.901 274.372C752.901 274.372 749.926 276.023 743.747 275.543L721.785 222.649L721.478 189.069L714.339 218.073L700.667 274.632C700.667 274.632 693.711 276.157 689.614 273.212L698.652 218.073L706.261 174.322L741.895 179.513Z" fill="#606161"/>
<path d="M724.299 91.5421C724.299 91.5421 723.34 103.9 724.299 107.229C725.258 110.558 728.137 113.417 730.958 113.417C733.779 113.417 738.096 111.038 739.996 106.759C741.896 102.48 742.874 92.0122 742.375 90.5827C741.876 89.1531 739.027 84.6629 731.437 85.3537C726.199 85.8334 724.299 89.6328 724.299 91.5421Z" fill="#C58067"/>
<path d="M741.8 97.6345C741.657 97.8536 741.467 98.0379 741.243 98.1741C741.02 98.3102 740.769 98.3947 740.508 98.4213C740.248 98.448 739.985 98.4162 739.739 98.3282C739.492 98.2402 739.269 98.0983 739.084 97.9127C738.736 97.5073 738.485 97.0278 738.351 96.5107C738.216 95.9936 738.201 95.4526 738.307 94.9289C738.442 93.8639 738.797 92.8373 738.864 91.7724C738.885 91.6522 738.881 91.529 738.853 91.4102C738.825 91.2915 738.773 91.1797 738.701 91.0816C738.605 91.003 738.495 90.9454 738.376 90.9123C738.257 90.8793 738.132 90.8715 738.01 90.8897C736.571 90.8897 734.882 91.4941 733.884 90.4675C733.28 89.8631 733.107 88.7981 732.301 88.5486C731.639 88.3088 730.939 88.7597 730.315 89.0859C728.817 89.8481 727.085 90.0128 725.469 89.5465C725.298 89.5164 725.134 89.4526 724.988 89.3587C724.841 89.2648 724.715 89.1427 724.616 88.9996C724.51 88.7516 724.479 88.4778 724.529 88.2128C724.631 87.359 724.917 86.5374 725.365 85.8039C725.814 85.0703 726.416 84.4423 727.129 83.9625C728.345 83.2391 729.698 82.7752 731.102 82.6001C732.716 82.3116 734.347 82.1226 735.985 82.0341C736.859 81.9176 737.749 82.03 738.566 82.3603C739.329 82.8549 740.014 83.4595 740.6 84.1544C741.56 85.0179 742.721 85.6319 743.479 86.6873C744.054 87.5412 745.311 87.522 745.753 89.5656C746.127 91.3982 746.376 93.2499 746.712 95.092C747.048 96.9341 746.261 98.8338 745.877 100.666C745.081 104.418 745.081 104.418 743.719 105.703C742.899 106.407 741.985 106.991 741.003 107.44C740.66 107.672 740.239 107.758 739.833 107.68C739.449 107.546 739.295 106.893 739.679 106.72" fill="#606161"/>
<path d="M740.197 99.5534C740.197 99.5534 740.677 96.6751 742.577 97.6345C744.476 98.594 742.107 103.813 741.147 104.293C740.719 104.553 740.228 104.692 739.727 104.696" fill="#C58067"/>
<path d="M710.031 147.564L686.956 128.078C686.956 128.078 681.583 128.701 681.333 135.091C681.333 135.091 691.936 148.379 702.797 155.066C707.489 157.954 711.173 148.638 710.031 147.564Z" fill="#3B82F6"/>
<path d="M708.842 151.382L713.073 123.875L707.623 153.599L708.842 151.382Z" fill="url(#paint17_linear)"/>
<path d="M681.132 277.462C679.931 277.761 678.815 278.332 677.87 279.131C677.41 279.545 677.106 280.105 677.01 280.717C676.914 281.328 677.031 281.954 677.342 282.489C677.73 282.873 678.194 283.17 678.706 283.361C679.217 283.551 679.763 283.63 680.307 283.593C685.9 283.974 691.515 283.864 697.088 283.267C697.308 283.256 697.521 283.193 697.712 283.084C697.99 282.883 698.95 282.297 698.998 281.952L699.727 276.474C698.019 276.79 695.38 277.318 693.663 277.021C691.447 276.627 690.573 274.449 688.434 274.871C685.997 275.361 683.502 276.675 681.132 277.462Z" fill="#3B82F6"/>
<path d="M736.724 279.189C735.523 279.487 734.407 280.059 733.462 280.858C733.001 281.27 732.697 281.828 732.601 282.438C732.504 283.049 732.622 283.673 732.934 284.207C733.321 284.592 733.785 284.891 734.297 285.083C734.808 285.275 735.354 285.356 735.899 285.32C741.492 285.701 747.107 285.591 752.68 284.993C752.899 284.983 753.113 284.92 753.304 284.811C753.582 284.61 755.53 283.631 755.568 283.286C755.818 281.463 754.34 278.786 754.158 277.529C752.45 277.855 750.972 279.083 749.255 278.786C747.038 278.393 746.165 276.205 744.026 276.637C741.589 277.088 739.094 278.402 736.724 279.189Z" fill="#3B82F6"/>
<path d="M759.972 76.1431C760.538 74.041 760.538 71.8266 759.972 69.7245C759.339 67.5564 758.234 65.5547 756.739 63.8623C755.243 63.367 753.632 63.3436 752.123 63.7952C750.041 64.6107 752.977 68.3429 752.709 70.1179C752.44 71.8928 750.732 66.9421 749.725 67.3739C748.717 67.8056 751.289 74.6272 753.208 75.4811" fill="#C58067"/>
<path d="M739.813 133.527C739.813 133.527 746.942 131.666 749.264 127.281C751.586 122.897 763.935 102.71 763.57 98.0087C763.148 92.5783 760.519 74.7424 760.519 74.7424C760.519 74.7424 760.231 73.284 756.786 73.7253C753.342 74.1667 752.805 76.1431 752.805 76.1431L752.498 97.0876L742.001 116.353C742.001 116.353 737.712 129.603 739.813 133.527Z" fill="#3B82F6"/>
<path d="M587.699 170.178C584.648 170.312 582.902 173.651 580.426 175.426C578.642 176.702 576.406 177.162 574.458 178.189C572.511 179.216 570.726 181.211 571.167 183.36C571.461 184.392 572.001 185.337 572.741 186.114L584.034 199.949C584.715 200.793 585.665 201.724 586.711 201.436C587.066 201.306 587.392 201.107 587.67 200.851L600.527 190.479C601.794 189.462 603.195 188.148 603.012 186.536C602.803 185.557 602.297 184.666 601.563 183.984C598.129 180.089 593.715 170.178 587.699 170.178Z" fill="#3B82F6"/>
<path d="M587.699 170.178C584.648 170.312 582.902 173.651 580.426 175.426C578.642 176.702 576.406 177.162 574.458 178.189C572.511 179.216 570.726 181.211 571.167 183.36C571.461 184.392 572.001 185.337 572.741 186.114L584.034 199.949C584.715 200.793 585.665 201.724 586.711 201.436C587.066 201.306 587.392 201.107 587.67 200.851L600.527 190.479C601.794 189.462 603.195 188.148 603.012 186.536C602.803 185.557 602.297 184.666 601.563 183.984C598.129 180.089 593.715 170.178 587.699 170.178Z" fill="url(#paint18_linear)"/>
<path d="M561.735 187.918C558.809 191.381 556.785 195.507 554.482 199.431C552.179 203.355 549.445 207.183 545.847 209.985C542.249 212.786 537.509 214.417 533.009 213.592L535.264 217.699C546.688 218.895 558.236 217.952 569.315 214.916C574.189 213.583 579.131 211.731 582.69 208.2C586.25 204.669 588.092 198.894 585.904 194.346C583.717 189.798 578.353 187.543 575.014 183.792C572.98 181.499 572.386 181.192 569.258 182.41C566.331 183.591 563.745 185.484 561.735 187.918V187.918Z" fill="white"/>
<path d="M552.371 206.204C552.384 206.029 552.361 205.853 552.301 205.688C552.242 205.523 552.148 205.372 552.026 205.245C551.508 204.842 550.817 205.379 550.337 205.811C547.459 208.411 543.295 208.565 539.476 208.929C535.657 209.294 531.32 210.378 529.574 213.794C528.615 215.597 528.615 217.718 528.672 219.742C528.672 223.071 528.749 226.458 529.996 229.576C530.39 230.536 531.311 231.658 532.29 231.246C532.541 231.091 532.757 230.884 532.922 230.639C533.088 230.394 533.199 230.117 533.249 229.826C533.825 228.012 534.208 226.046 535.465 224.616C537.384 222.438 540.666 222.265 543.563 221.901C548.354 221.323 552.981 219.79 557.169 217.392C558.224 216.777 559.404 215.78 559.088 214.59C558.771 213.4 556.996 213.074 555.739 213.477C554.482 213.88 553.283 214.696 552.007 214.436C552.064 213.141 551.68 211.856 551.776 210.599C551.844 209.083 552.477 207.74 552.371 206.204Z" fill="#3B82F6"/>
<path d="M552.371 206.204C552.384 206.029 552.361 205.853 552.301 205.688C552.242 205.523 552.148 205.372 552.026 205.245C551.508 204.842 550.817 205.379 550.337 205.811C547.459 208.411 543.295 208.565 539.476 208.929C535.657 209.294 531.32 210.378 529.574 213.794C528.615 215.597 528.615 217.718 528.672 219.742C528.672 223.071 528.749 226.458 529.996 229.576C530.39 230.536 531.311 231.658 532.29 231.246C532.541 231.091 532.757 230.884 532.922 230.639C533.088 230.394 533.199 230.117 533.249 229.826C533.825 228.012 534.208 226.046 535.465 224.616C537.384 222.438 540.666 222.265 543.563 221.901C548.354 221.323 552.981 219.79 557.169 217.392C558.224 216.777 559.404 215.78 559.088 214.59C558.771 213.4 556.996 213.074 555.739 213.477C554.482 213.88 553.283 214.696 552.007 214.436C552.064 213.141 551.68 211.856 551.776 210.599C551.844 209.083 552.477 207.74 552.371 206.204Z" fill="url(#paint19_linear)"/>
<path d="M534.784 215.799C536.163 214.486 537.796 213.467 539.581 212.805C542.316 211.691 545.194 210.967 548.13 210.656C549.006 210.649 549.867 210.435 550.644 210.033C550.833 209.955 551.005 209.84 551.149 209.695C551.294 209.551 551.409 209.379 551.487 209.19C551.566 209.002 551.606 208.799 551.606 208.595C551.607 208.39 551.566 208.188 551.488 207.999C551.41 207.81 551.296 207.638 551.151 207.493C551.007 207.348 550.835 207.234 550.646 207.155C550.457 207.077 550.255 207.036 550.05 207.036C549.846 207.036 549.643 207.076 549.454 207.154C548.775 207.387 548.129 207.71 547.535 208.114C544.878 209.543 541.73 209.62 538.747 210.033C535.763 210.445 532.558 211.587 531.071 214.206C530.111 215.962 530.015 218.044 530.015 220.107C529.891 222.82 530.175 225.537 530.86 228.166C530.984 228.559 531.243 229.03 531.656 228.991C531.874 228.939 532.063 228.805 532.184 228.617C533.93 226.439 532.289 224.453 532.289 222.074C532.286 219.74 533.179 217.493 534.784 215.799V215.799Z" fill="url(#paint20_linear)"/>
<path d="M534.611 233.836C533.086 234.508 532.692 236.446 532.52 238.096C532.23 240.713 532.214 243.353 532.472 245.973C532.475 246.544 532.595 247.109 532.825 247.632C533.054 248.155 533.388 248.625 533.805 249.015C534.214 249.278 534.684 249.429 535.169 249.452C535.654 249.476 536.137 249.371 536.569 249.149C537.434 248.69 538.135 247.972 538.574 247.096C540.224 244.102 538.91 241.771 538.488 238.739C538.229 236.954 537.384 232.618 534.611 233.836Z" fill="url(#paint21_linear)"/>
<path d="M529.286 234.383C528.871 234.489 528.486 234.69 528.161 234.969C527.837 235.249 527.581 235.6 527.415 235.995C527.254 236.254 527.147 236.543 527.099 236.845C527.051 237.146 527.064 237.454 527.137 237.751C527.29 238.131 527.579 238.44 527.949 238.618C528.318 238.795 528.74 238.828 529.133 238.71C529.511 238.566 529.841 238.319 530.085 237.997C530.329 237.674 530.478 237.29 530.514 236.887C530.579 236.072 530.332 235.263 529.824 234.623" fill="url(#paint22_linear)"/>
<path d="M404.392 147.305C404.392 147.305 408.335 151.305 410.148 151.526C411.962 151.747 425.5 147.612 426.632 146.623C427.764 145.635 428.695 139.533 428.695 139.533L404.392 147.305Z" fill="#3B82F6"/>
<path d="M404.392 147.305C404.392 147.305 408.335 151.305 410.148 151.526C411.962 151.747 425.5 147.612 426.632 146.623C427.764 145.635 428.695 139.533 428.695 139.533L404.392 147.305Z" fill="url(#paint23_linear)"/>
<path d="M426.767 114.866C426.773 115.159 426.842 115.446 426.968 115.71C429.127 119.74 410.734 148.331 395.123 127.377C393.788 125.558 392.604 123.633 391.583 121.62C391.583 121.62 355.833 83.243 364.9 58.9404C373.919 34.7722 408.498 26.6074 427.122 50.3055C440.919 67.8056 426.153 107.498 426.767 114.866Z" fill="#3B82F6"/>
<path d="M426.767 114.866C426.773 115.159 426.842 115.446 426.968 115.71C429.127 119.74 410.734 148.331 395.123 127.377C393.788 125.558 392.604 123.633 391.583 121.62C391.583 121.62 355.833 83.243 364.9 58.9404C373.919 34.7722 408.498 26.6074 427.122 50.3055C440.919 67.8056 426.153 107.498 426.767 114.866Z" fill="url(#paint24_linear)"/>
<path d="M426.968 115.71C429.127 119.74 410.734 148.331 395.123 127.377C399 122.894 403.906 119.418 409.42 117.246C414.934 115.073 420.893 114.27 426.786 114.904C426.791 115.183 426.853 115.457 426.968 115.71V115.71Z" fill="url(#paint25_linear)"/>
<path d="M398.587 134.621C398.86 134.899 399.049 135.248 399.134 135.628C399.136 135.998 399.051 136.363 398.885 136.693C398.566 137.624 398.541 138.631 398.814 139.577C399.087 140.523 399.644 141.361 400.41 141.98C398.779 142.939 399.182 145.683 400.708 146.825C402.233 147.967 404.306 147.976 406.205 147.784C413.723 147.222 421.032 145.052 427.64 141.423C430.163 140.022 432.84 137.979 432.975 135.091C432.283 134.473 431.459 134.02 430.566 133.767C431.094 132.616 431.526 130.985 430.442 130.294C430.087 130.073 429.645 130.025 429.281 129.814C428.88 129.508 428.576 129.092 428.406 128.617C428.236 128.142 428.206 127.628 428.321 127.137C428.553 126.154 428.605 125.136 428.475 124.134C428.283 123.514 427.879 122.981 427.333 122.63C426.787 122.279 426.134 122.132 425.491 122.215C419.839 126.763 413.469 131.56 406.234 131.138C402.895 130.917 393.281 127.79 398.587 134.621Z" fill="#3B82F6"/>
<path d="M398.587 134.621C398.86 134.899 399.049 135.248 399.134 135.628C399.136 135.998 399.051 136.363 398.885 136.693C398.566 137.624 398.541 138.631 398.814 139.577C399.087 140.523 399.644 141.361 400.41 141.98C398.779 142.939 399.182 145.683 400.708 146.825C402.233 147.967 404.306 147.976 406.205 147.784C413.723 147.222 421.032 145.052 427.64 141.423C430.163 140.022 432.84 137.979 432.975 135.091C432.283 134.473 431.459 134.02 430.566 133.767C431.094 132.616 431.526 130.985 430.442 130.294C430.087 130.073 429.645 130.025 429.281 129.814C428.88 129.508 428.576 129.092 428.406 128.617C428.236 128.142 428.206 127.628 428.321 127.137C428.553 126.154 428.605 125.136 428.475 124.134C428.283 123.514 427.879 122.981 427.333 122.63C426.787 122.279 426.134 122.132 425.491 122.215C419.839 126.763 413.469 131.56 406.234 131.138C402.895 130.917 393.281 127.79 398.587 134.621Z" fill="url(#paint26_linear)"/>
<path d="M419.532 127.243L417.172 127.377L416.481 115.576C415.186 93.2883 412.835 88.7789 411.549 88.0689C411.453 88.021 411.338 87.9538 411.022 88.0689C410.617 88.3074 410.272 88.6357 410.014 89.0284C410.979 89.8555 411.811 90.8263 412.48 91.9067C413.766 94.027 413.948 96.0131 412.989 97.3563C412.731 97.8035 412.34 98.1593 411.87 98.3742C411.401 98.5891 410.876 98.6525 410.369 98.5556C408.527 98.0951 407.366 95.447 407.059 93.1731C406.897 92.0783 406.936 90.9631 407.174 89.8823C406.445 89.4131 405.583 89.1942 404.718 89.2586C403.615 89.3834 402.799 90.4004 402.31 92.2041C402.112 92.9098 401.962 93.6277 401.859 94.3532C404.622 95.6773 407.069 98.9202 406.656 101.069C406.605 101.528 406.413 101.96 406.105 102.304C405.797 102.648 405.389 102.887 404.939 102.988C404.31 103.136 403.653 103.113 403.036 102.922C402.419 102.732 401.863 102.38 401.427 101.904C400.688 101.204 399.355 99.4479 399.345 96.0898C398.568 96.0898 397.675 96.5504 397.042 98.4021C395.123 103.871 405.802 122.494 410.062 129.2L408.067 130.466C406.435 127.905 392.216 105.166 394.807 97.6345C395.958 94.2765 398.05 93.672 399.546 93.7392C399.666 93.0049 399.826 92.2778 400.026 91.5613C400.986 88.0785 402.905 87.0999 404.382 86.908C405.673 86.7797 406.971 87.0582 408.095 87.7043C408.562 87.021 409.179 86.4534 409.899 86.0445C410.323 85.7881 410.807 85.6478 411.302 85.6377C411.797 85.6276 412.286 85.7481 412.72 85.9869C414.86 87.1575 417.517 91.5613 418.87 115.432L419.532 127.243ZM401.734 97.0301C401.775 98.2136 402.238 99.3434 403.039 100.215C403.181 100.389 403.362 100.527 403.567 100.618C403.772 100.71 403.995 100.753 404.219 100.743V100.743C404.411 99.9468 403.279 98.143 401.734 97.0301ZM409.304 91.6476C409.288 92.0451 409.307 92.4433 409.362 92.8373C409.63 94.8617 410.523 96.1186 410.878 96.2529C410.878 96.2529 410.955 96.1666 411.07 96.0131C411.434 95.5046 411.194 94.3916 410.456 93.1348C410.12 92.6038 409.734 92.1059 409.304 91.6476V91.6476Z" fill="white"/>
<defs>
<linearGradient id="paint0_linear" x1="414.85" y1="155.287" x2="265.957" y2="-98.1433" gradientUnits="userSpaceOnUse">
<stop stop-color="#010101" stop-opacity="0"/>
<stop offset="0.54" stop-color="#010101" stop-opacity="0.54"/>
<stop offset="0.95" stop-color="#010101"/>
</linearGradient>
<linearGradient id="paint1_linear" x1="434.5" y1="427" x2="599.567" y2="56.1633" gradientUnits="userSpaceOnUse">
<stop stop-color="#010101" stop-opacity="0"/>
<stop offset="0.95" stop-color="#010101"/>
</linearGradient>
<linearGradient id="paint2_linear" x1="12466.9" y1="4612.56" x2="12688.1" y2="20225.2" gradientUnits="userSpaceOnUse">
<stop stop-color="#010101" stop-opacity="0"/>
<stop offset="0.95" stop-color="#010101"/>
</linearGradient>
<linearGradient id="paint3_linear" x1="19307.4" y1="4494.35" x2="19528.5" y2="20107.8" gradientUnits="userSpaceOnUse">
<stop stop-color="#010101" stop-opacity="0"/>
<stop offset="0.95" stop-color="#010101"/>
</linearGradient>
<linearGradient id="paint4_linear" x1="17586.7" y1="4563.74" x2="17807.8" y2="20176.4" gradientUnits="userSpaceOnUse">
<stop stop-color="#010101" stop-opacity="0"/>
<stop offset="0.95" stop-color="#010101"/>
</linearGradient>
<linearGradient id="paint5_linear" x1="25055.2" y1="4438.82" x2="25276.2" y2="20051.4" gradientUnits="userSpaceOnUse">
<stop stop-color="#010101" stop-opacity="0"/>
<stop offset="0.95" stop-color="#010101"/>
</linearGradient>
<linearGradient id="paint6_linear" x1="29532.3" y1="4417.51" x2="29753.2" y2="20026.1" gradientUnits="userSpaceOnUse">
<stop stop-color="#010101" stop-opacity="0"/>
<stop offset="0.95" stop-color="#010101"/>
</linearGradient>
<linearGradient id="paint7_linear" x1="27400.6" y1="4504.1" x2="27621.9" y2="20116.7" gradientUnits="userSpaceOnUse">
<stop stop-color="#010101" stop-opacity="0"/>
<stop offset="0.95" stop-color="#010101"/>
</linearGradient>
<linearGradient id="paint8_linear" x1="23310.6" y1="4508.61" x2="23531.8" y2="20123.2" gradientUnits="userSpaceOnUse">
<stop stop-color="#010101" stop-opacity="0"/>
<stop offset="0.95" stop-color="#010101"/>
</linearGradient>
<linearGradient id="paint9_linear" x1="11937.2" y1="3001.99" x2="12076.3" y2="19242.3" gradientUnits="userSpaceOnUse">
<stop stop-color="#010101" stop-opacity="0"/>
<stop offset="0.95" stop-color="#010101"/>
</linearGradient>
<linearGradient id="paint10_linear" x1="18476.6" y1="2922.32" x2="18615.5" y2="19151.8" gradientUnits="userSpaceOnUse">
<stop stop-color="#010101" stop-opacity="0"/>
<stop offset="0.95" stop-color="#010101"/>
</linearGradient>
<linearGradient id="paint11_linear" x1="16838" y1="2982.7" x2="16977" y2="19220.2" gradientUnits="userSpaceOnUse">
<stop stop-color="#010101" stop-opacity="0"/>
<stop offset="0.95" stop-color="#010101"/>
</linearGradient>
<linearGradient id="paint12_linear" x1="23965" y1="2902.48" x2="24104.1" y2="19144.2" gradientUnits="userSpaceOnUse">
<stop stop-color="#010101" stop-opacity="0"/>
<stop offset="0.95" stop-color="#010101"/>
</linearGradient>
<linearGradient id="paint13_linear" x1="28293.5" y1="2912.46" x2="28432.9" y2="19177.9" gradientUnits="userSpaceOnUse">
<stop stop-color="#010101" stop-opacity="0"/>
<stop offset="0.95" stop-color="#010101"/>
</linearGradient>
<linearGradient id="paint14_linear" x1="26272.9" y1="2985.51" x2="26412.3" y2="19251.1" gradientUnits="userSpaceOnUse">
<stop stop-color="#010101" stop-opacity="0"/>
<stop offset="0.95" stop-color="#010101"/>
</linearGradient>
<linearGradient id="paint15_linear" x1="22327.2" y1="2960.49" x2="22466.2" y2="19196.1" gradientUnits="userSpaceOnUse">
<stop stop-color="#010101" stop-opacity="0"/>
<stop offset="0.95" stop-color="#010101"/>
</linearGradient>
<linearGradient id="paint16_linear" x1="695.726" y1="115.931" x2="686.199" y2="100.484" gradientUnits="userSpaceOnUse">
<stop stop-color="white" stop-opacity="0"/>
<stop offset="0.95" stop-color="white"/>
</linearGradient>
<linearGradient id="paint17_linear" x1="3648.26" y1="4376.1" x2="3861.79" y2="4381.24" gradientUnits="userSpaceOnUse">
<stop stop-color="#010101" stop-opacity="0"/>
<stop offset="0.95" stop-color="#010101"/>
</linearGradient>
<linearGradient id="paint18_linear" x1="13960.7" y1="6316.38" x2="15083.3" y2="7665.61" gradientUnits="userSpaceOnUse">
<stop stop-color="#010101" stop-opacity="0"/>
<stop offset="0.95" stop-color="#010101"/>
</linearGradient>
<linearGradient id="paint19_linear" x1="11559.5" y1="5999.5" x2="12608.4" y2="7285.28" gradientUnits="userSpaceOnUse">
<stop stop-color="#010101" stop-opacity="0"/>
<stop offset="0.95" stop-color="#010101"/>
</linearGradient>
<linearGradient id="paint20_linear" x1="8390.24" y1="4992.37" x2="9764.59" y2="7145.18" gradientUnits="userSpaceOnUse">
<stop stop-color="white" stop-opacity="0"/>
<stop offset="0.95" stop-color="white"/>
</linearGradient>
<linearGradient id="paint21_linear" x1="3114.9" y1="4315.61" x2="3167.32" y2="4315.61" gradientUnits="userSpaceOnUse">
<stop stop-color="#010101" stop-opacity="0"/>
<stop offset="0.95" stop-color="#010101"/>
</linearGradient>
<linearGradient id="paint22_linear" x1="1765.58" y1="1345.19" x2="1778.09" y2="1345.19" gradientUnits="userSpaceOnUse">
<stop stop-color="#010101" stop-opacity="0"/>
<stop offset="0.95" stop-color="#010101"/>
</linearGradient>
<linearGradient id="paint23_linear" x1="8286.53" y1="209.713" x2="8903.95" y2="18.9357" gradientUnits="userSpaceOnUse">
<stop stop-color="#010101" stop-opacity="0"/>
<stop offset="0.95" stop-color="#010101"/>
</linearGradient>
<linearGradient id="paint24_linear" x1="23822.2" y1="6936.44" x2="28614.4" y2="5455.7" gradientUnits="userSpaceOnUse">
<stop stop-color="white" stop-opacity="0"/>
<stop offset="0.95" stop-color="white"/>
</linearGradient>
<linearGradient id="paint25_linear" x1="11292.2" y1="333.614" x2="11776" y2="1378.66" gradientUnits="userSpaceOnUse">
<stop stop-color="#010101" stop-opacity="0"/>
<stop offset="0.95" stop-color="#010101"/>
</linearGradient>
<linearGradient id="paint26_linear" x1="12787.2" y1="1577.17" x2="13209.5" y2="-161.574" gradientUnits="userSpaceOnUse">
<stop stop-color="#010101" stop-opacity="0"/>
<stop offset="0.95" stop-color="#010101"/>
</linearGradient>
</defs>
</svg>
