<svg width="70" height="70" viewBox="0 0 70 70" fill="none" xmlns="http://www.w3.org/2000/svg">
<g clip-path="url(#clip0)">
<path d="M35 70C54.33 70 70 54.33 70 35C70 15.67 54.33 0 35 0C15.67 0 0 15.67 0 35C0 54.33 15.67 70 35 70Z" fill="#75B73B"/>
<path d="M49.2517 20.7574C47.2224 20.2499 44.2381 18.4972 42.3064 17.7946C34.7643 15.4377 24.6296 17.3232 21.8013 26.0438C21.5656 26.2795 21.0942 26.2795 20.8585 26.2795C15.2019 32.8788 18.973 40.8923 18.5016 48.1987C18.3407 50.7743 16.9864 53.0518 15.2435 54.9783L29.9109 69.6304C31.5726 69.8724 33.2712 70 35 70C52.2862 70 66.6438 57.4677 69.4869 40.9936L49.2517 20.7574Z" fill="#52891D"/>
<path d="M34.0207 14.8267C23.3527 15.3342 14.9342 24.2187 14.9663 34.8985C14.9762 38.1513 15.7615 41.2216 17.147 43.935L15.0201 54.2591C14.9051 54.8178 15.4088 55.3068 15.9636 55.1753L26.0801 52.7786C28.6792 54.0735 31.5986 54.821 34.6882 54.8682C45.5919 55.0349 54.6834 46.3773 55.0237 35.4775C55.3876 23.7938 45.7449 14.2682 34.0207 14.8267ZM46.092 45.9287C43.1294 48.8913 39.19 50.523 35 50.523C32.5467 50.523 30.1976 49.9725 28.0183 48.887L26.6099 48.1851L20.4069 49.6544L21.7125 43.3167L21.0186 41.9573C19.8871 39.7417 19.3134 37.3461 19.3134 34.8365C19.3134 30.6463 20.9452 26.7073 23.9077 23.7445C26.8439 20.808 30.8475 19.1502 35.0003 19.1502C39.1899 19.1502 43.1293 20.7819 46.0919 23.7445C49.0544 26.707 50.6862 30.6464 50.6862 34.8361C50.6864 38.989 49.0283 42.9924 46.092 45.9287Z" fill="white"/>
<path d="M44.7227 39.1811L40.8421 38.0669C40.3323 37.9208 39.7827 38.0656 39.411 38.4443L38.4619 39.4109C38.0618 39.8189 37.4548 39.9497 36.9251 39.7355C35.0894 38.9925 31.2278 35.559 30.2422 33.8421C29.9573 33.3466 30.0044 32.7275 30.3539 32.275L31.1821 31.2033C31.5067 30.7835 31.5751 30.2193 31.3605 29.7339L29.728 26.0414C29.337 25.1572 28.2069 24.8996 27.4684 25.5241C26.3855 26.4403 25.1005 27.8319 24.9445 29.3741C24.669 32.093 25.8352 35.5202 30.244 39.6355C35.3377 44.3903 39.417 45.018 42.0733 44.3747C43.5798 44.0101 44.7837 42.5475 45.5431 41.3497C46.0614 40.5325 45.6518 39.4481 44.7227 39.1811Z" fill="white"/>
<path d="M48.6724 20.1945L45.6341 23.3086C45.7887 23.4515 45.9426 23.5952 46.0922 23.7449C49.0549 26.7075 50.6865 30.6469 50.6865 34.8365C50.6865 38.9893 49.0284 42.9926 46.0922 45.929C43.1297 48.8916 39.1902 50.5233 35.0002 50.5233C32.5469 50.5233 30.198 49.9728 28.0185 48.8873L26.6101 48.1854L20.4071 49.6548L20.5354 49.0323L15.0428 54.6613C15.164 55.0253 15.5494 55.2731 15.9635 55.175L26.08 52.7784C28.6792 54.0732 31.5985 54.8208 34.6881 54.868C45.5918 55.0346 54.6836 46.3771 55.0236 35.4773C55.2116 29.4433 52.7305 23.9853 48.6724 20.1945Z" fill="#D1D1D1"/>
<path d="M44.7227 39.1813L40.8421 38.0671C40.3323 37.921 39.7827 38.0658 39.4109 38.4445L38.4618 39.4111C38.0618 39.819 37.4548 39.9499 36.9251 39.7357C35.8647 39.3065 34.1291 37.9795 32.6615 36.6042L29.9638 39.3694C30.0564 39.458 30.1487 39.5464 30.2441 39.6357C35.3378 44.3905 39.4171 45.0182 42.0734 44.3749C43.5799 44.0103 44.7838 42.5477 45.5432 41.3499C46.0613 40.5327 45.6517 39.4483 44.7227 39.1813Z" fill="#D1D1D1"/>
</g>
<defs>
<clipPath id="clip0">
<rect width="70" height="70" fill="white"/>
</clipPath>
</defs>
</svg>
