<svg width="55px" height="30px" viewBox="0 0 55 30" version="1.1" xmlns="http://www.w3.org/2000/svg" xmlns:xlink="http://www.w3.org/1999/xlink">
<!-- Generator: sketchtool 59.1 (101010) - https://sketch.com -->
<title>851084E8-2D76-4B52-A08E-CAC7CF2C65AD</title>
<desc>Created with sketchtool.</desc>
<g id="Sign-up-and-Login" stroke="none" stroke-width="1">
    <g id="Checkout-Payment---1440px" transform="translate(-80.000000, -13.000000)">
        <g id="01_primary-navigation/_combo/desktop">
            <g id="center" transform="translate(79.090361, 0.000000)">
                <g id="logo" transform="translate(1.000000, 12.000000)">
                    <g id="_ow-logo-01_primary-navigation/logo/--standard">
                        <g id="primary-navigation/logo/--standard">
                            <path d="M39,1 L15,1 C6.7,1 0,7.7 0,16 C0,24.3 6.7,31 15,31 L39,31 C47.3,31 54,24.3 54,16 C54,7.7 47.3,1 39,1 L39,1 Z M39,3 C46.2,3 52,8.8 52,16 C52,23.2 46.2,29 39,29 L15,29 C7.8,29 2,23.2 2,16 C2,8.8 7.8,3 15,3 L39,3 L39,3 Z M24.5,10.8 C24.4,10.7 24.4,10.5 24.4,10.3 C24.4,9.6 25,9.1 25.6,9.1 C26.1,9.1 26.6,9.5 26.8,10 L29.9,19.3 L32.9,10 C33,9.5 33.5,9.1 34.1,9.1 L34.3,9.1 C34.9,9.1 35.4,9.5 35.5,10 L38.5,19.2 L41.7,10 C41.9,9.5 42.3,9.2 42.9,9.1 C43.5,9.1 44.1,9.6 44.1,10.2 C44.1,10.4 44.1,10.5 44,10.7 L40,21.9 C39.9,22.5 39.3,22.9 38.8,22.9 L38.6,22.9 C38,22.9 37.5,22.5 37.4,21.9 L34.4,13.1 L31.4,21.9 C31.3,22.5 30.8,22.9 30.2,22.9 L30,22.9 C29.4,22.9 28.9,22.5 28.8,21.9 L24.5,10.8 Z M20.9,16 L20.9,16 C21,13.4 19,11.3 16.5,11.2 L16.3,11.2 C13.8,11.2 11.7,13.2 11.7,15.8 L11.7,16 C11.6,18.5 13.6,20.7 16.1,20.8 L16.3,20.8 C18.8,20.8 20.9,18.8 20.9,16.3 L20.9,16 Z M9.3,16 L9.3,16 C9.3,12.2 12.3,9 16.1,9 L16.3,9 C20.1,8.9 23.2,11.9 23.3,15.7 L23.3,16 C23.3,19.8 20.3,23 16.5,23 L16.2,23 C12.4,23.1 9.3,20.1 9.2,16.3 C9.3,16.2 9.3,16.1 9.3,16 L9.3,16 Z" id="ow-logo30"></path>
                        </g>
                    </g>
                </g>
            </g>
        </g>
    </g>
</g>
</svg>